<svg fill="#e6e7e8" xmlns="http://www.w3.org/2000/svg"  viewBox="0 0 50 50" width="100px" height="100px"><path d="M 29.796875 4 C 29.375 4.011719 29.003906 4.296875 28.878906 4.703125 C 28.753906 5.109375 28.898438 5.550781 29.238281 5.804688 C 31.507813 7.527344 33.527344 9.554688 35.246094 11.824219 C 35.457031 12.121094 35.8125 12.28125 36.175781 12.238281 C 36.539063 12.199219 36.847656 11.960938 36.988281 11.625 C 37.125 11.285156 37.070313 10.902344 36.839844 10.617188 C 35.011719 8.199219 32.859375 6.042969 30.449219 4.210938 C 30.265625 4.066406 30.035156 3.992188 29.796875 4 Z M 22.644531 5.0625 C 22.183594 5.054688 21.773438 5.359375 21.652344 5.804688 C 21.535156 6.253906 21.734375 6.722656 22.140625 6.945313 C 26.683594 9.488281 30.519531 13.148438 33.28125 17.546875 C 33.574219 18.015625 34.191406 18.160156 34.660156 17.867188 C 35.125 17.570313 35.269531 16.953125 34.972656 16.484375 C 32.035156 11.800781 27.957031 7.910156 23.121094 5.199219 C 22.976563 5.113281 22.8125 5.070313 22.644531 5.0625 Z M 14.5 7.007813 C 13.601563 7.007813 12.703125 7.347656 12.027344 8.023438 C 11.65625 8.394531 11.402344 8.828125 11.234375 9.289063 L 10.972656 9.023438 C 10.296875 8.347656 9.398438 8.007813 8.5 8.007813 C 7.601563 8.003906 6.703125 8.347656 6.023438 9.023438 C 4.902344 10.148438 4.722656 11.859375 5.453125 13.1875 C 4.933594 13.34375 4.4375 13.613281 4.023438 14.027344 C 2.667969 15.382813 2.667969 17.617188 4.023438 18.972656 L 4.292969 19.242188 C 3.832031 19.398438 3.398438 19.652344 3.023438 20.027344 C 1.667969 21.382813 1.667969 23.617188 3.023438 24.972656 L 3.898438 25.847656 L 20.367188 42.320313 C 23.875 45.828125 29.589844 45.828125 33.09375 42.320313 L 37.316406 38.097656 C 38.335938 37.082031 39.121094 35.859375 39.621094 34.511719 L 42.25 27.433594 C 42.652344 26.355469 43.28125 25.375 44.09375 24.5625 L 45.828125 22.832031 L 46.828125 21.832031 C 48.382813 20.277344 48.382813 17.726563 46.828125 16.171875 C 45.273438 14.621094 42.722656 14.621094 41.171875 16.171875 L 40.171875 17.171875 L 39.464844 17.882813 L 35.265625 22.078125 C 34.085938 23.257813 32.207031 23.257813 31.027344 22.078125 L 17.910156 8.964844 L 16.972656 8.023438 C 16.296875 7.347656 15.398438 7.007813 14.5 7.007813 Z M 14.5 8.992188 C 14.882813 8.996094 15.261719 9.144531 15.5625 9.441406 L 16.5 10.375 C 16.496094 10.378906 16.496094 10.378906 16.5 10.378906 L 29.609375 23.488281 C 31.554688 25.433594 34.738281 25.433594 36.683594 23.488281 L 40.875 19.296875 L 41.585938 18.589844 L 42.585938 17.589844 C 43.375 16.796875 44.625 16.796875 45.414063 17.589844 C 46.203125 18.378906 46.203125 19.625 45.414063 20.417969 L 42.679688 23.152344 C 41.664063 24.164063 40.878906 25.390625 40.375 26.734375 L 37.746094 33.8125 C 37.34375 34.890625 36.71875 35.871094 35.90625 36.683594 C 35.902344 36.683594 35.902344 36.683594 35.90625 36.683594 L 31.683594 40.90625 C 28.941406 43.648438 24.523438 43.648438 21.78125 40.90625 L 4.4375 23.5625 C 3.847656 22.96875 3.84375 22.035156 4.4375 21.4375 C 5.027344 20.851563 5.890625 20.890625 6.515625 21.515625 C 6.546875 21.550781 6.585938 21.582031 6.625 21.609375 L 14.8125 29.984375 C 15.0625 30.246094 15.433594 30.351563 15.785156 30.265625 C 16.132813 30.179688 16.410156 29.90625 16.503906 29.558594 C 16.601563 29.210938 16.5 28.839844 16.246094 28.582031 L 6.726563 18.855469 C 6.722656 18.851563 6.722656 18.847656 6.71875 18.847656 L 5.441406 17.5625 C 5.441406 17.5625 5.441406 17.5625 5.4375 17.5625 C 4.847656 16.96875 4.84375 16.035156 5.4375 15.4375 C 6.03125 14.84375 6.914063 14.863281 7.523438 15.472656 L 16.699219 24.644531 C 16.949219 24.90625 17.320313 25.011719 17.671875 24.921875 C 18.019531 24.832031 18.296875 24.554688 18.386719 24.207031 C 18.476563 23.855469 18.371094 23.484375 18.109375 23.234375 L 9 14.121094 C 8.980469 14.101563 8.960938 14.078125 8.9375 14.0625 L 7.4375 12.5625 C 6.84375 11.964844 6.84375 11.03125 7.4375 10.4375 C 8.035156 9.84375 8.96875 9.847656 9.5625 10.4375 L 20.796875 21.671875 C 21.046875 21.933594 21.417969 22.039063 21.769531 21.949219 C 22.117188 21.859375 22.394531 21.582031 22.484375 21.234375 C 22.574219 20.882813 22.46875 20.511719 22.207031 20.261719 L 13.507813 11.5625 C 13.488281 11.539063 13.472656 11.519531 13.453125 11.5 C 12.839844 10.890625 12.835938 10.042969 13.4375 9.4375 C 13.734375 9.144531 14.117188 8.992188 14.5 8.992188 Z M 4.234375 31.988281 C 3.882813 32.003906 3.5625 32.203125 3.394531 32.511719 C 3.226563 32.824219 3.234375 33.199219 3.414063 33.5 C 6.410156 38.679688 10.769531 42.964844 16 45.871094 C 16.316406 46.054688 16.703125 46.054688 17.015625 45.871094 C 17.332031 45.6875 17.519531 45.347656 17.511719 44.984375 C 17.5 44.617188 17.296875 44.289063 16.972656 44.121094 C 12.058594 41.390625 7.960938 37.363281 5.148438 32.5 C 4.964844 32.171875 4.609375 31.976563 4.234375 31.988281 Z"/></svg>