<svg fill="#80c342" xmlns="http://www.w3.org/2000/svg"  viewBox="0 0 50 50" width="50px" height="50px"><path d="M 22 0 C 20.355469 0 19 1.355469 19 3 L 19 6 C 19 6.523438 19.183594 7.058594 19.5625 7.4375 C 19.84375 7.71875 20.203125 7.898438 20.59375 7.96875 C 20.445313 8.085938 20.261719 8.175781 20.03125 8.21875 L 20 8.21875 C 15.457031 9.214844 12 13.222656 12 18.09375 L 12 21 C 12 22.257813 12.890625 23.152344 14 23.59375 L 14 36.40625 C 12.890625 36.847656 12 37.742188 12 39 L 12 45 C 12 47.746094 14.253906 50 17 50 L 33 50 C 35.746094 50 38 47.746094 38 45 L 38 39 C 38 37.742188 37.109375 36.847656 36 36.40625 L 36 23.59375 C 37.109375 23.152344 38 22.257813 38 21 L 38 18.09375 C 38 13.222656 34.542969 9.214844 30 8.21875 L 29.96875 8.21875 C 29.738281 8.175781 29.554688 8.085938 29.40625 7.96875 C 29.796875 7.898438 30.15625 7.71875 30.4375 7.4375 C 30.816406 7.058594 31 6.523438 31 6 L 31 3 C 31 1.355469 29.644531 0 28 0 Z M 22 2 L 28 2 C 28.554688 2 29 2.445313 29 3 L 29 6 L 21 6 L 21 3 C 21 2.445313 21.445313 2 22 2 Z M 22.65625 8 L 27.34375 8 C 27.707031 9.046875 28.445313 9.929688 29.59375 10.15625 L 29.59375 10.1875 C 29.601563 10.1875 29.617188 10.1875 29.625 10.1875 C 33.269531 11 36 14.175781 36 18.09375 L 36 21 C 36 21.554688 35.554688 22 35 22 L 18 22 L 18 24 L 34 24 L 34 36 L 18 36 L 18 38 L 35 38 C 35.554688 38 36 38.445313 36 39 L 36 45 C 36 46.65625 34.65625 48 33 48 L 17 48 C 15.34375 48 14 46.65625 14 45 L 14 39 C 14 38.445313 14.445313 38 15 38 L 16 38 L 16 22 L 15 22 C 14.445313 22 14 21.554688 14 21 L 14 18.09375 C 14 14.175781 16.730469 11 20.375 10.1875 C 20.390625 10.183594 20.390625 10.160156 20.40625 10.15625 C 21.554688 9.929688 22.292969 9.046875 22.65625 8 Z"/></svg>