<svg fill="#80c342" xmlns="http://www.w3.org/2000/svg"  viewBox="0 0 50 50" width="50px" height="50px"><path d="M 20.96875 -0.03125 C 20.820313 -0.0273438 20.679688 0.0078125 20.5 0.0625 C 20.144531 0.167969 19.8125 0.4375 19.625 0.6875 C 19.4375 0.9375 19.324219 1.195313 19.1875 1.5 C 19.175781 1.53125 19.164063 1.5625 19.15625 1.59375 C 18.863281 2.472656 17.839844 5.363281 17.34375 6.75 C 17.246094 7.027344 17.164063 7.289063 17.125 7.5625 L 14.75 13.3125 L 4.71875 3.28125 C 4.476563 3.03125 4.121094 2.925781 3.78125 3 C 3.40625 3.066406 3.105469 3.339844 3 3.703125 C 2.894531 4.070313 3.003906 4.460938 3.28125 4.71875 L 45.28125 46.71875 C 45.679688 47.117188 46.320313 47.117188 46.71875 46.71875 C 47.117188 46.320313 47.117188 45.679688 46.71875 45.28125 L 36.75 35.3125 L 42.625 32.84375 L 42.625 32.875 C 42.644531 32.871094 42.695313 32.847656 42.71875 32.84375 C 43.347656 32.695313 44.34375 32.34375 45.4375 31.96875 C 46.558594 31.582031 47.664063 31.207031 48.09375 31.0625 C 48.109375 31.058594 48.109375 31.035156 48.125 31.03125 C 48.742188 30.839844 49.351563 30.542969 49.71875 29.90625 C 50.089844 29.261719 50.039063 28.4375 49.71875 27.71875 C 49.71875 27.714844 49.71875 27.691406 49.71875 27.6875 C 48.644531 24.949219 45.777344 16.726563 39.59375 10.53125 C 39.585938 10.523438 39.601563 10.507813 39.59375 10.5 C 33.609375 4.421875 25.753906 1.171875 22.15625 0.21875 L 22.15625 0.25 C 21.753906 0.140625 21.410156 -0.0429688 20.96875 -0.03125 Z M 21.1875 2 C 21.164063 2.027344 21.183594 2.035156 21.625 2.15625 C 21.636719 2.15625 21.644531 2.15625 21.65625 2.15625 C 24.855469 3.003906 32.574219 6.195313 38.1875 11.90625 C 43.980469 17.699219 46.746094 25.59375 47.875 28.46875 C 47.875 28.480469 47.875 28.488281 47.875 28.5 C 48.042969 28.875 48 28.90625 48 28.90625 C 48 28.90625 47.867188 29.046875 47.5 29.15625 C 47.488281 29.15625 47.480469 29.15625 47.46875 29.15625 C 46.988281 29.316406 45.898438 29.707031 44.78125 30.09375 C 43.664063 30.480469 42.464844 30.875 42.1875 30.9375 C 42.167969 30.9375 42.144531 30.9375 42.125 30.9375 C 42.132813 30.945313 42.105469 30.957031 42.0625 30.8125 C 42.054688 30.792969 42.042969 30.769531 42.03125 30.75 C 41.097656 28.15625 38.464844 22.066406 33.21875 16.8125 C 33.214844 16.808594 33.191406 16.816406 33.1875 16.8125 C 28.226563 11.757813 22.226563 9.085938 19.5625 8.0625 C 19.550781 8.0625 19.542969 8.0625 19.53125 8.0625 C 19.332031 7.996094 19.203125 7.945313 19.125 7.90625 C 19.128906 7.875 19.167969 7.757813 19.1875 7.6875 C 19.222656 7.605469 19.238281 7.523438 19.25 7.4375 C 19.753906 6.023438 20.753906 3.140625 21.0625 2.21875 C 21.113281 2.117188 21.160156 2.046875 21.1875 2 Z M 18.34375 9.75 C 18.515625 9.8125 18.6875 9.855469 18.84375 9.90625 L 18.84375 9.9375 C 18.851563 9.941406 18.867188 9.933594 18.875 9.9375 C 21.414063 10.914063 27.15625 13.464844 31.78125 18.1875 C 31.78125 18.199219 31.78125 18.207031 31.78125 18.21875 C 36.695313 23.132813 39.246094 28.949219 40.125 31.375 C 40.132813 31.398438 40.148438 31.414063 40.15625 31.4375 C 40.1875 31.53125 40.242188 31.628906 40.28125 31.71875 L 35.25 33.8125 L 34.65625 33.21875 C 36.070313 32.328125 37 30.777344 37 29 C 37 26.199219 34.800781 24 32 24 C 30.222656 24 28.671875 24.929688 27.78125 26.34375 L 16.28125 14.84375 Z M 13.09375 17.1875 L 0.09375 48.59375 C -0.105469 48.992188 0.0117188 49.386719 0.3125 49.6875 C 0.511719 49.886719 0.699219 50 1 50 C 1.101563 50 1.304688 50.007813 1.40625 49.90625 L 32.8125 36.90625 L 31.1875 35.40625 L 23.90625 38.40625 C 24.007813 38.105469 24 37.800781 24 37.5 C 24 35 22 33 19.5 33 C 17 33 15 35 15 37.5 C 15 39.101563 15.800781 40.386719 17 41.1875 L 2.8125 47.1875 L 6 39.59375 C 6.699219 40.394531 7.800781 41 9 41 C 11.199219 41 13 39.199219 13 37 C 13 34.800781 11.199219 33 9 33 L 8.6875 33 L 11.40625 26.40625 C 12.507813 27.90625 14.3125 28.90625 16.3125 28.90625 C 18.613281 28.90625 20.59375 27.585938 21.59375 25.6875 L 20.09375 24.1875 C 19.59375 25.789063 18.113281 26.90625 16.3125 26.90625 C 14.511719 26.90625 12.90625 25.699219 12.40625 24 L 14.3125 19.5 C 14.511719 19.398438 14.792969 19.289063 15.09375 19.1875 Z M 32 26 C 33.699219 26 35 27.300781 35 29 C 35 30.265625 34.289063 31.328125 33.21875 31.78125 L 33.1875 31.78125 L 29.21875 27.8125 C 29.222656 27.804688 29.214844 27.789063 29.21875 27.78125 C 29.671875 26.710938 30.734375 26 32 26 Z M 9 35 C 10.101563 35 11 35.898438 11 37 C 11 38.101563 10.101563 39 9 39 C 7.898438 39 7.101563 38.195313 7 37.09375 L 7.6875 35.5 C 7.988281 35.199219 8.5 35 9 35 Z M 19.5 35 C 20.898438 35 22 36.101563 22 37.5 C 22 38.898438 20.898438 40 19.5 40 C 18.101563 40 17 38.898438 17 37.5 C 17 36.101563 18.101563 35 19.5 35 Z"/></svg>