<svg xmlns="http://www.w3.org/2000/svg"  viewBox="0 0 50 50" width="50px" height="50px"><path d="M 16 3 A 1.0001 1.0001 0 0 0 15 4 L 15 7.6289062 L 9.2402344 14.349609 A 1.0001 1.0001 0 0 0 9.2265625 14.367188 A 1.0001 1.0001 0 0 0 9.2167969 14.378906 A 1.0001 1.0001 0 0 0 9.1796875 14.429688 A 1.0001 1.0001 0 0 0 9.1347656 14.501953 A 1.0001 1.0001 0 0 0 9.1191406 14.529297 A 1.0001 1.0001 0 0 0 9.1015625 14.564453 A 1.0001 1.0001 0 0 0 9.0722656 14.632812 A 1.0001 1.0001 0 0 0 9.0644531 14.650391 A 1.0001 1.0001 0 0 0 9.0390625 14.726562 A 1.0001 1.0001 0 0 0 9.0332031 14.75 A 1.0001 1.0001 0 0 0 9.0195312 14.806641 A 1.0001 1.0001 0 0 0 9.0078125 14.880859 A 1.0001 1.0001 0 0 0 9.0058594 14.900391 A 1.0001 1.0001 0 0 0 9 14.984375 A 1.0001 1.0001 0 0 0 9 14.996094 A 1.0001 1.0001 0 0 0 9 15 L 9 46 A 1.0001 1.0001 0 0 0 10 47 L 30 47 L 40 47 A 1.0001 1.0001 0 0 0 41 46 L 41 15 A 1.0001 1.0001 0 0 0 40.814453 14.417969 L 36 7.6777344 L 36 4 A 1.0001 1.0001 0 0 0 35 3 L 16 3 z M 17 5 L 34 5 L 34 7 L 17 7 L 17 5 z M 16.458984 9 L 33.056641 9 L 29.486328 14 L 12.173828 14 L 16.458984 9 z M 35 9.7226562 L 39 15.320312 L 39 45 L 31 45 L 31 15.322266 L 35 9.7226562 z M 11 16 L 29 16 L 29 45 L 11 45 L 11 16 z M 15 25 C 13.895 25 13 25.895 13 27 C 13 28.105 13.895 29 15 29 C 16.105 29 17 28.105 17 27 C 17 25.895 16.105 25 15 25 z M 25 25 C 23.895 25 23 25.895 23 27 C 23 28.105 23.895 29 25 29 C 26.105 29 27 28.105 27 27 C 27 25.895 26.105 25 25 25 z M 24.023438 31.988281 A 1.0001 1.0001 0 0 0 23.191406 32.410156 C 23.191406 32.410156 22.015066 34 20 34 C 17.984934 34 16.808594 32.410156 16.808594 32.410156 A 1.0008697 1.0008697 0 0 0 15.191406 33.589844 C 15.191406 33.589844 16.935066 36 20 36 C 23.064934 36 24.808594 33.589844 24.808594 33.589844 A 1.0001 1.0001 0 0 0 24.023438 31.988281 z"/></svg>