<svg fill="#80c342" xmlns="http://www.w3.org/2000/svg"  viewBox="0 0 50 50" width="50px" height="50px"><path d="M 30.5 11.09375 C 30.246094 11.09375 29.976563 11.210938 29.78125 11.40625 L 24.28125 16.90625 C 23.890625 17.296875 23.890625 17.921875 24.28125 18.3125 C 24.476563 18.507813 24.742188 18.59375 25 18.59375 C 25.257813 18.59375 25.523438 18.507813 25.71875 18.3125 L 27.75 16.28125 L 31.375 19.90625 C 29.789063 20.902344 27.117188 22.03125 23 22.03125 C 16.640625 22.03125 13.738281 19.414063 13 18.625 L 13 17.6875 C 13 16.390625 12.636719 15.207031 11.9375 14.15625 L 10.84375 12.46875 C 10.542969 12.007813 9.933594 11.855469 9.46875 12.15625 C 9.003906 12.457031 8.855469 13.066406 9.15625 13.53125 L 10.28125 15.25 C 10.773438 15.988281 11 16.78125 11 17.6875 L 11 18.03125 L 5.3125 18.03125 C 3.472656 18.03125 2.03125 19.46875 2.03125 21.3125 L 2.03125 26.125 C 2.382813 26.042969 2.722656 26 3.09375 26 L 4.40625 26 C 5.785156 24.722656 7.597656 24 9.5 24 C 11.402344 24 13.214844 24.722656 14.59375 26 L 35.40625 26 C 36.785156 24.722656 38.597656 24 40.5 24 C 42.402344 24 44.214844 24.722656 45.59375 26 L 46.8125 26 C 47.046875 26 47.273438 26.03125 47.5 26.0625 C 45.195313 21.53125 35.515625 18.441406 34.28125 18.0625 C 33.894531 17.941406 33.46875 18.082031 33.21875 18.40625 C 33.214844 18.410156 33.113281 18.507813 32.96875 18.65625 L 29.1875 14.875 L 31.21875 12.8125 C 31.609375 12.421875 31.609375 11.796875 31.21875 11.40625 C 31.023438 11.210938 30.753906 11.09375 30.5 11.09375 Z M 9.5 26 C 7.796875 26 6.261719 26.777344 5.25 28 L 3.09375 28 C 1.414063 28 0 29.453125 0 31.1875 L 0 31.90625 C 0 33.558594 1.441406 35 3.09375 35 L 5.25 35 C 6.261719 36.222656 7.796875 37 9.5 37 C 11.203125 37 12.738281 36.222656 13.75 35 L 36.25 35 C 37.261719 36.222656 38.796875 37 40.5 37 C 42.203125 37 43.738281 36.222656 44.75 35 L 45.21875 35 C 45.371094 35 45.527344 34.96875 45.65625 34.90625 L 46.8125 34.90625 C 48.523438 34.90625 49.90625 33.523438 49.90625 31.8125 L 49.90625 31.09375 C 49.90625 29.386719 48.523438 28 46.8125 28 L 44.75 28 C 43.738281 26.777344 42.203125 26 40.5 26 C 38.796875 26 37.261719 26.777344 36.25 28 L 13.75 28 C 12.738281 26.777344 11.203125 26 9.5 26 Z M 9.5 28 C 11.429688 28 13 29.570313 13 31.5 C 13 33.429688 11.429688 35 9.5 35 C 7.570313 35 6 33.429688 6 31.5 C 6 29.570313 7.570313 28 9.5 28 Z M 40.5 28 C 42.429688 28 44 29.570313 44 31.5 C 44 33.429688 42.429688 35 40.5 35 C 38.570313 35 37 33.429688 37 31.5 C 37 29.570313 38.570313 28 40.5 28 Z"/></svg>