<svg fill="#2b6b80" xmlns="http://www.w3.org/2000/svg"  viewBox="0 0 50 50" width="50px" height="50px"><path d="M 32.136719 3.0625 C 31.875 3.0625 31.628906 3.167969 31.441406 3.351563 L 10.359375 24.265625 C 9.964844 24.65625 9.960938 25.289063 10.351563 25.679688 L 31.265625 46.765625 C 31.65625 47.15625 32.289063 47.160156 32.679688 46.769531 L 38.703125 40.796875 C 39.097656 40.40625 39.101563 39.773438 38.710938 39.378906 L 24.476563 25.03125 L 38.828125 10.796875 C 39.21875 10.40625 39.222656 9.773438 38.832031 9.382813 L 32.859375 3.359375 C 32.667969 3.164063 32.40625 3.058594 32.136719 3.0625 Z M 32.140625 5.476563 L 36.707031 10.078125 L 22.359375 24.3125 C 21.964844 24.703125 21.960938 25.335938 22.351563 25.730469 L 36.585938 40.078125 L 31.980469 44.644531 L 12.476563 24.980469 Z"/></svg>