<svg xmlns="http://www.w3.org/2000/svg"  viewBox="0 0 50 50" width="50px" height="50px"><path d="M 20.5 0 C 17.474423 0 15 2.4744232 15 5.5 L 15 6 L 14 6 L 14 8 L 18 8 L 18 6 L 17 6 L 17 5.5 C 17 3.5555768 18.555577 2 20.5 2 C 22.444423 2 24 3.5555768 24 5.5 L 24 17 L 22 17 L 22 14 L 18 14 L 19 17 L 3.6914062 17 L 4.0351562 18.263672 C 5.8019782 24.742351 11.475716 29.209971 18.072266 29.779297 L 20.095703 50 L 29.904297 50 L 29.994141 49.099609 L 31.927734 29.779297 C 38.524284 29.209971 44.198022 24.742351 45.964844 18.263672 L 46.308594 17 L 31 17 L 32 14 L 28 14 L 28 17 L 26 17 L 26 5.5 C 26 2.4744232 23.525577 0 20.5 0 z M 6.546875 19 L 43.453125 19 C 41.401937 24.329141 36.40619 28 30.597656 28 L 19.402344 28 C 13.59381 28 8.5980626 24.329141 6.546875 19 z M 20.103516 30 L 29.896484 30 L 28.095703 48 L 21.904297 48 L 20.103516 30 z"/></svg>