<svg fill="#80c342" xmlns="http://www.w3.org/2000/svg"  viewBox="0 0 50 50" width="50px" height="50px"><path d="M 17 3 C 15.894531 3 15 3.894531 15 5 L 15 10 L 13 10 C 9.132813 10 6 13.132813 6 17 L 6 36 C 6 39.867188 9.132813 43 13 43 L 13 47 L 37 47 L 37 43 C 40.867188 43 44 39.867188 44 36 L 44 17 C 44 13.132813 40.867188 10 37 10 L 35 10 L 35 5 C 35 3.894531 34.105469 3 33 3 Z M 17 5 L 33 5 L 33 10 L 17 10 Z M 13 12 L 37 12 C 39.757813 12 42 14.242188 42 17 L 42 36 C 42 38.757813 39.757813 41 37 41 L 13 41 C 10.242188 41 8 38.757813 8 36 L 8 17 C 8 14.242188 10.242188 12 13 12 Z M 19 22 C 17.894531 22 17 22.894531 17 24 C 17 25.105469 17.894531 26 19 26 C 20.105469 26 21 25.105469 21 24 C 21 22.894531 20.105469 22 19 22 Z M 31 22 C 29.894531 22 29 22.894531 29 24 C 29 25.105469 29.894531 26 31 26 C 32.105469 26 33 25.105469 33 24 C 33 22.894531 32.105469 22 31 22 Z M 19.3125 30.96875 C 19.25 30.972656 19.1875 30.984375 19.125 31 C 18.738281 31.078125 18.429688 31.375 18.34375 31.757813 C 18.257813 32.144531 18.402344 32.542969 18.71875 32.78125 C 20.4375 34.171875 22.621094 35 25 35 C 27.375 35 29.5625 34.171875 31.28125 32.78125 C 31.714844 32.4375 31.78125 31.804688 31.4375 31.375 C 31.09375 30.941406 30.460938 30.875 30.03125 31.21875 C 28.65625 32.332031 26.910156 33 25 33 C 23.089844 33 21.34375 32.332031 19.96875 31.21875 C 19.789063 31.058594 19.554688 30.96875 19.3125 30.96875 Z M 15 43 L 35 43 L 35 45 L 15 45 Z"/></svg>