<svg fill="#80c342" xmlns="http://www.w3.org/2000/svg"  viewBox="0 0 50 50" width="50px" height="50px"><path d="M 37.242188 1.972656 C 36.691406 1.988281 36.238281 2.085938 35.890625 2.203125 C 35.433594 2.363281 35.097656 2.601563 35.097656 2.601563 C 35.0625 2.628906 35.027344 2.660156 34.992188 2.695313 L 11.753906 26.03125 C 10.765625 27.023438 10.765625 28.648438 11.757813 29.640625 L 12.5625 30.449219 L 12.5625 31.234375 C 12.5625 32.03125 12.191406 32.796875 11.65625 33.328125 L 2.695313 42.292969 C 1.660156 43.324219 1.660156 44.976563 2.695313 46.007813 L 3.992188 47.308594 C 5.023438 48.339844 6.675781 48.339844 7.707031 47.308594 L 16.671875 38.34375 C 17.296875 37.71875 18.007813 37.4375 18.863281 37.4375 L 19.550781 37.4375 L 20.359375 38.242188 C 21.351563 39.234375 22.976563 39.234375 23.96875 38.246094 L 23.972656 38.242188 L 47.304688 15.007813 C 47.339844 14.972656 47.371094 14.9375 47.402344 14.902344 C 47.402344 14.902344 47.636719 14.566406 47.796875 14.109375 C 47.953125 13.648438 48.078125 12.992188 48.011719 12.175781 C 47.871094 10.550781 46.96875 8.355469 44.308594 5.695313 C 41.644531 3.03125 39.449219 2.128906 37.824219 1.992188 C 37.617188 1.972656 37.425781 1.96875 37.242188 1.972656 Z M 14 2 C 10.699219 2 8 4.699219 8 8 C 8 11.300781 10.699219 14 14 14 C 15.917969 14 17.628906 13.085938 18.730469 11.675781 C 18.871094 11.5625 18.976563 11.410156 19.039063 11.238281 C 19.644531 10.304688 20 9.191406 20 8 C 20 4.699219 17.300781 2 14 2 Z M 37.65625 3.984375 C 38.703125 4.074219 40.457031 4.671875 42.890625 7.109375 C 45.328125 9.542969 45.925781 11.296875 46.015625 12.34375 C 46.058594 12.871094 45.980469 13.234375 45.902344 13.457031 C 45.832031 13.660156 45.816406 13.671875 45.8125 13.675781 L 22.558594 36.828125 C 22.351563 37.035156 21.980469 37.035156 21.769531 36.828125 L 20.769531 35.828125 C 20.71875 35.757813 20.652344 35.691406 20.582031 35.640625 L 13.171875 28.230469 C 12.964844 28.019531 12.964844 27.648438 13.171875 27.441406 L 36.324219 4.1875 C 36.328125 4.183594 36.339844 4.167969 36.542969 4.097656 C 36.765625 4.019531 37.128906 3.941406 37.65625 3.984375 Z M 14 4 C 16.222656 4 18 5.777344 18 8 C 18 8.734375 17.789063 9.414063 17.449219 10 C 16.691406 10.125 15.429688 10.015625 13.90625 8.492188 C 12.695313 7.28125 12.386719 6.292969 12.347656 5.550781 C 12.320313 4.929688 12.503906 4.492188 12.636719 4.25 C 13.0625 4.097656 13.515625 4 14 4 Z M 10.421875 6.234375 C 10.617188 7.363281 11.226563 8.640625 12.492188 9.90625 C 13.46875 10.882813 14.464844 11.441406 15.390625 11.738281 C 14.957031 11.902344 14.492188 12 14 12 C 11.777344 12 10 10.222656 10 8 C 10 7.363281 10.160156 6.769531 10.421875 6.234375 Z M 14.433594 32.316406 L 17.699219 35.582031 C 16.792969 35.796875 15.945313 36.238281 15.257813 36.925781 L 6.292969 45.890625 C 6.125 46.058594 5.574219 46.058594 5.40625 45.890625 L 4.109375 44.59375 C 3.941406 44.425781 3.941406 43.875 4.109375 43.707031 L 13.074219 34.742188 C 13.707031 34.105469 14.210938 33.269531 14.433594 32.316406 Z"/></svg>