<svg fill="#80c342" xmlns="http://www.w3.org/2000/svg"  viewBox="0 0 50 50" width="50px" height="50px"><path d="M 10.875 0 C 10.652344 0.0234375 10.441406 0.125 10.28125 0.28125 L 0.4375 10.15625 C 0.382813 10.191406 0.328125 10.234375 0.28125 10.28125 C 0.257813 10.300781 0.238281 10.320313 0.21875 10.34375 C 0.195313 10.375 0.175781 10.40625 0.15625 10.4375 C 0.117188 10.496094 0.0859375 10.558594 0.0625 10.625 C 0.0273438 10.714844 0.0078125 10.808594 0 10.90625 C -0.0078125 10.980469 -0.0078125 11.050781 0 11.125 C 0 11.15625 0 11.1875 0 11.21875 L 0 31 C 0 31.03125 0 31.0625 0 31.09375 L 0 49 C 0 49.550781 0.449219 50 1 50 L 4 50 C 4.550781 50 5 49.550781 5 49 L 5 32 L 17 32 L 17 34 L 6 34 L 6 36 L 17 36 L 17 38 L 6 38 L 6 40 L 17 40 L 17 42 L 6 42 L 6 44 L 17 44 L 17 46 L 6 46 L 6 48 L 17 48 L 17 49 C 17 49.550781 17.449219 50 18 50 L 21 50 C 21.550781 50 22 49.550781 22 49 L 22 31.15625 C 22.003906 31.105469 22.003906 31.050781 22 31 L 22 11.15625 C 22.003906 11.105469 22.003906 11.050781 22 11 C 22 10.988281 22 10.980469 22 10.96875 C 22 10.949219 22 10.925781 22 10.90625 C 22 10.886719 22 10.863281 22 10.84375 C 21.992188 10.800781 21.980469 10.757813 21.96875 10.71875 C 21.953125 10.664063 21.929688 10.613281 21.90625 10.5625 C 21.894531 10.550781 21.886719 10.542969 21.875 10.53125 C 21.839844 10.464844 21.796875 10.402344 21.75 10.34375 C 21.75 10.332031 21.75 10.324219 21.75 10.3125 C 21.738281 10.300781 21.730469 10.292969 21.71875 10.28125 L 21.6875 10.28125 C 21.667969 10.257813 21.648438 10.238281 21.625 10.21875 L 11.71875 0.28125 C 11.496094 0.0625 11.183594 -0.0429688 10.875 0 Z M 11 2.4375 L 18.5625 10 L 3.4375 10 Z M 2 12 L 20 12 L 20 30 L 2 30 Z M 11 14 C 7.15625 14 4 17.15625 4 21 C 4 24.84375 7.15625 28 11 28 C 14.84375 28 18 24.84375 18 21 C 18 17.15625 14.84375 14 11 14 Z M 11 16 C 13.753906 16 16 18.246094 16 21 C 16 23.753906 13.753906 26 11 26 C 8.246094 26 6 23.753906 6 21 C 6 18.246094 8.246094 16 11 16 Z M 23 20 L 23 22 C 26.738281 22 28.867188 23.246094 30.46875 25.15625 C 32.070313 27.066406 33.066406 29.738281 34.03125 32.53125 C 34.996094 35.324219 35.941406 38.207031 37.6875 40.5 C 39.433594 42.792969 42.09375 44.40625 46 44.40625 C 47.074219 44.40625 48 45.496094 48 46.6875 L 48 47.90625 C 42.484375 47.773438 38.675781 46.78125 36.1875 45.3125 C 33.523438 43.742188 32.113281 41.707031 31.09375 39.5625 C 30.074219 37.417969 29.519531 35.203125 28.5 33.34375 C 27.480469 31.484375 25.734375 30 23 30 L 23 32 C 25.117188 32 25.890625 32.765625 26.71875 34.28125 C 27.546875 35.796875 28.164063 38.082031 29.28125 40.4375 C 30.398438 42.792969 32.097656 45.257813 35.15625 47.0625 C 38.214844 48.867188 42.582031 50 49 50 C 49.550781 50 50 49.550781 50 49 L 50 46.6875 C 50 44.476563 48.328125 42.40625 46 42.40625 C 42.605469 42.40625 40.734375 41.1875 39.28125 39.28125 C 37.828125 37.375 36.910156 34.683594 35.9375 31.875 C 34.964844 29.066406 33.921875 26.136719 32 23.84375 C 30.078125 21.550781 27.210938 20 23 20 Z M 2 32 L 3 32 L 3 48 L 2 48 Z M 19 32 L 20 32 L 20 48 L 19 48 Z"/></svg>