<svg fill='#80c342' xmlns="http://www.w3.org/2000/svg"  viewBox="0 0 50 50" width="50px" height="50px"><path d="M 6 5 A 1.0001 1.0001 0 0 0 5.0058594 6.1054688 L 7.8046875 32.697266 C 7.8051752 32.7019 7.8061398 32.706307 7.8066406 32.710938 L 8.8183594 42.314453 C 8.9779516 43.832817 10.273526 45 11.800781 45 L 38.199219 45 C 39.726474 45 41.024002 43.832817 41.183594 42.314453 L 42.195312 32.697266 L 44.994141 6.1054688 A 1.0001 1.0001 0 0 0 44 5 L 6 5 z M 7.1113281 7 L 42.888672 7 L 40.888672 26 L 36.660156 26 L 36.919922 25.394531 A 1.0001 1.0001 0 0 0 36.394531 24.080078 L 29.394531 21.080078 A 1.0001 1.0001 0 0 0 29.003906 21 A 1.0001 1.0001 0 0 0 28.080078 21.605469 L 26.197266 26 L 23 26 L 23 23 A 1.0001 1.0001 0 0 0 22 22 L 14 22 A 1.0001 1.0001 0 0 0 13 23 L 13 26 L 9.1113281 26 L 7.1113281 7 z M 29.525391 23.3125 L 34.6875 25.525391 L 34.484375 26 L 28.373047 26 L 29.525391 23.3125 z M 15 24 L 21 24 L 21 26 L 15 26 L 15 24 z M 9.3222656 28 L 40.679688 28 L 40.207031 32.488281 C 40.092741 33.574404 39.263388 34.706949 37.917969 35.574219 C 36.572549 36.441488 34.76382 37 33 37 L 17 37 C 15.23618 37 13.427451 36.441488 12.082031 35.574219 C 10.743901 34.711647 9.918246 33.58659 9.796875 32.505859 L 9.3222656 28 z M 13 30 L 13 31 C 13 31.552 13.448 32 14 32 L 22 32 C 22.552 32 23 31.552 23 31 L 23 30 L 13 30 z M 25.800781 30 L 32.609375 32.919922 C 32.729375 32.969922 32.87 33 33 33 C 33.39 33 33.759922 32.770625 33.919922 32.390625 L 34.939453 30 L 32.769531 30 L 32.470703 30.689453 L 30.869141 30 L 25.800781 30 z M 10.238281 36.703125 C 10.481607 36.897087 10.732786 37.08487 10.998047 37.255859 C 12.690127 38.34659 14.82582 39 17 39 L 33 39 C 35.17418 39 37.309873 38.34659 39.001953 37.255859 C 39.267642 37.084594 39.519993 36.897436 39.763672 36.703125 L 39.195312 42.103516 C 39.140905 42.621152 38.719964 43 38.199219 43 L 11.800781 43 C 11.280036 43 10.861048 42.621152 10.806641 42.103516 L 10.238281 36.703125 z"/></svg>