<svg fill='#80c342' xmlns="http://www.w3.org/2000/svg"  viewBox="0 0 50 50" width="50px" height="50px"><path d="M 21.5 2 C 18.474279 2 16 4.4742785 16 7.5 C 16 10.525721 18.474279 13 21.5 13 C 24.525721 13 27 10.525721 27 7.5 C 27 4.4742785 24.525721 2 21.5 2 z M 38 2 A 1.0001 1.0001 0 0 0 37 3 L 37 9 L 37 15 L 21.099609 15 L 21 15 L 17.050781 15 C 15.50832 15 14.319737 15.682124 13.566406 16.472656 C 12.813075 17.263189 12.438106 18.13436 12.253906 18.679688 A 1.0001 1.0001 0 0 0 12.251953 18.685547 C 12.251953 18.685547 9.1340048 28.122639 8.2109375 30.958984 L 8.2109375 30.960938 C 7.8664417 31.913865 7.9503908 32.926809 8.4453125 33.708984 C 8.9386353 34.488473 9.8515541 34.994011 10.861328 34.998047 L 10.431641 36.283203 A 1.0001 1.0001 0 0 0 10.410156 36.353516 C 10.278575 36.869519 10.275933 37.603884 10.652344 38.160156 A 1.0001 1.0001 0 0 0 10.777344 38.310547 C 11.098951 38.628968 11.548419 39 12.291016 39 L 16 39 L 16 46 C 16 47.379798 17.038625 48.371327 18.316406 48.714844 A 1.0001 1.0001 0 0 0 19 49 A 1.0001 1.0001 0 0 0 19.683594 48.714844 C 20.172632 48.583371 20.625843 48.355578 21 48.048828 C 21.374157 48.355578 21.827368 48.583371 22.316406 48.714844 A 1.0001 1.0001 0 0 0 23 49 A 1.0001 1.0001 0 0 0 23.683594 48.714844 C 24.961375 48.371327 26 47.379798 26 46 L 26 39 L 29.599609 39 C 30.121832 39 30.833299 38.752982 31.232422 38.154297 C 31.659991 37.512943 31.633546 36.836185 31.449219 36.283203 L 27.648438 22.261719 C 27.469529 21.602609 27.930045 21 28.613281 21 L 38 21 C 39.64497 21 41 19.64497 41 18 C 41 16.706873 40.157321 15.604868 39 15.1875 L 39 10 L 46 10 A 1.0001 1.0001 0 0 0 46.707031 8.2929688 L 44.414062 6 L 46.707031 3.7070312 A 1.0001 1.0001 0 0 0 46 2 L 38 2 z M 21.5 4 C 23.444841 4 25 5.5551587 25 7.5 C 25 9.4448413 23.444841 11 21.5 11 C 19.555159 11 18 9.4448413 18 7.5 C 18 5.5551587 19.555159 4 21.5 4 z M 39 4 L 43.585938 4 L 42.292969 5.2929688 A 1.0001 1.0001 0 0 0 42.292969 6.7070312 L 43.585938 8 L 39 8 L 39 4 z M 17.050781 17 L 21 17 L 21.099609 17 L 38 17 C 38.56503 17 39 17.43497 39 18 C 39 18.56503 38.56503 19 38 19 L 28.613281 19 C 26.662518 19 25.207659 20.902266 25.71875 22.785156 L 29.535156 36.861328 A 1.0001 1.0001 0 0 0 29.550781 36.916016 C 29.561001 36.946656 29.5615 36.97123 29.5625 37 L 25 37 L 21 37 L 20.998047 37 L 12.316406 37 C 12.304596 37.0031 12.304163 37.01455 12.345703 36.865234 L 13.601562 33.119141 C 13.61054 33.097082 13.622373 33.077021 13.630859 33.054688 A 1.0001 1.0001 0 0 0 13.691406 32.849609 L 16.884766 23.318359 A 1.0001 1.0001 0 0 0 15.949219 21.986328 A 1.0001 1.0001 0 0 0 14.988281 22.681641 L 11.732422 32.402344 C 11.557166 32.805487 11.252239 33 10.873047 33 C 10.469642 33 10.272264 32.857928 10.134766 32.640625 C 9.9972663 32.423322 9.9300946 32.087142 10.091797 31.640625 A 1.0001 1.0001 0 0 0 10.103516 31.609375 C 11.011311 28.819224 14.152344 19.314453 14.152344 19.314453 C 14.272996 18.959001 14.553907 18.334032 15.013672 17.851562 C 15.475341 17.367095 16.061243 17 17.050781 17 z M 18 39 L 20 39 L 20 46 C 20 46.554545 19.554545 47 19 47 C 18.445455 47 18 46.554545 18 46 L 18 39 z M 22 39 L 24 39 L 24 46 C 24 46.554545 23.554545 47 23 47 C 22.445455 47 22 46.554545 22 46 L 22 39 z"/></svg>