<svg fill="#e6e7e8" xmlns="http://www.w3.org/2000/svg"  viewBox="0 0 50 50" width="100px" height="100px"><path d="M 13 0 L 13 4 L 8 4 L 8 6 L 13 6 L 13 12 L 8 12 L 8 14 L 13 14 L 13 20 L 8 20 L 8 22 L 13 22 L 13 28 L 8 28 L 8 30 L 13 30 L 13 36 L 8 36 L 8 38 L 13 38 L 13 44 L 8 44 L 8 46 L 13 46 L 13 50 L 15 50 L 15 0 Z M 34 0 L 34 4 L 16 4 L 16 6 L 34 6 L 34 12 L 16 12 L 16 14 L 34 14 L 34 20 L 16 20 L 16 22 L 34 22 L 34 28 L 16 28 L 16 30 L 34 30 L 34 36 L 16 36 L 16 38 L 34 38 L 34 44 L 16 44 L 16 46 L 34 46 L 34 50 L 36 50 L 36 0 Z M 37 4 L 37 6 L 42 6 L 42 4 Z M 37 12 L 37 14 L 42 14 L 42 12 Z M 37 20 L 37 22 L 42 22 L 42 20 Z M 37 28 L 37 30 L 42 30 L 42 28 Z M 37 36 L 37 38 L 42 38 L 42 36 Z M 37 44 L 37 46 L 42 46 L 42 44 Z"/></svg>