<svg fill="#80c342" xmlns="http://www.w3.org/2000/svg"  viewBox="0 0 50 50" width="50px" height="50px"><path d="M 29 2 C 26.250421 2 24 4.2504209 24 7 C 24 9.7495791 26.250421 12 29 12 C 31.749579 12 34 9.7495791 34 7 C 34 4.2504209 31.749579 2 29 2 z M 29 4 C 30.668699 4 32 5.3313011 32 7 C 32 8.6686989 30.668699 10 29 10 C 27.331301 10 26 8.6686989 26 7 C 26 5.3313011 27.331301 4 29 4 z M 25.210938 13 C 24.111991 13 23.042153 13.362003 22.169922 14.029297 L 16.21875 18.587891 A 1.0001 1.0001 0 0 0 16.115234 18.679688 C 15.772503 18.958252 15.489672 19.31337 15.294922 19.726562 A 1.0001 1.0001 0 0 0 15.214844 19.878906 L 12.378906 26.568359 C 12.148326 26.9881 12 27.475722 12 28 C 12 28.796293 12.321705 29.520956 12.835938 30.060547 L 4.1171875 46.53125 A 1.0001 1.0001 0 1 0 5.8828125 47.46875 L 14.621094 30.962891 C 14.746461 30.979162 14.87052 31 15 31 C 16.318322 31 17.436341 30.130034 17.832031 28.939453 L 20.283203 23.441406 L 21.421875 22.607422 C 20.873555 24.854543 20.1875 27.675781 20.1875 27.675781 A 1.0001 1.0001 0 0 0 20.15625 27.935547 C 20.079651 28.259715 20.005393 28.594146 20.001953 28.974609 A 1.0001 1.0001 0 0 0 19.996094 29.001953 L 18.570312 36.154297 L 13.951172 42.111328 L 14.037109 42.015625 C 13.399564 42.647584 13 43.532578 13 44.5 C 13 46.421188 14.578812 48 16.5 48 C 17.588942 48 18.493956 47.427173 19.132812 46.644531 A 1.0001 1.0001 0 0 0 19.447266 46.376953 L 24.417969 39.900391 A 1.0001 1.0001 0 0 0 24.589844 39.554688 L 25.537109 36.076172 L 27.21875 37.611328 L 29.052734 44.978516 C 29.086388 45.236751 29.149707 45.498113 29.248047 45.757812 L 29.259766 45.800781 A 1.0001 1.0001 0 0 0 29.720703 46.423828 C 30.352144 47.329469 31.315499 48 32.5 48 C 34.421188 48 36 46.421188 36 44.5 C 36 44.013128 35.879326 43.566001 35.707031 43.160156 L 33.699219 35.109375 A 1.0001 1.0001 0 0 0 33.53125 34.753906 L 29.091797 28.798828 L 30.337891 24.212891 L 31.863281 25.90625 A 1.0001 1.0001 0 0 0 32.332031 26.199219 L 37.898438 27.789062 L 37.921875 27.798828 A 1.0001 1.0001 0 0 0 38.292969 27.865234 C 38.522742 27.924565 38.744881 28 39 28 L 39 47 A 1.0001 1.0001 0 1 0 41 47 L 41 27.212891 C 41.608162 26.662162 42 25.876386 42 25 C 42 23.918744 41.342999 23.068576 40.478516 22.542969 A 1.0001 1.0001 0 0 0 39.939453 22.152344 L 35.283203 20.785156 L 31.484375 15.402344 A 1.0001 1.0001 0 0 0 31.388672 15.285156 C 30.644997 13.994609 29.289733 13.107683 27.71875 13.029297 C 27.68335 13.020497 27.611359 13.015736 27.550781 13.009766 C 27.546181 13.009312 27.541079 13.008212 27.537109 13.007812 C 27.523973 13.007745 27.51316 13 27.5 13 C 27.321875 13 27.393445 13.001353 27.486328 13.001953 C 27.485434 13.001828 27.474646 13 27.474609 13 L 25.210938 13 z M 25.210938 15 L 27.466797 15 L 27.474609 15 C 27.475027 15.000036 27.482422 15.001953 27.482422 15.001953 C 27.710644 15.001953 27.71622 15 27.5 15 C 28.892562 15 30 16.107438 30 17.5 C 30 17.715878 29.95895 17.942925 29.884766 18.197266 A 1.0001 1.0001 0 0 0 29.847656 18.398438 L 27.035156 28.744141 A 1.0001 1.0001 0 0 0 27.197266 29.603516 L 31.806641 35.787109 L 33.765625 43.644531 A 1.0001 1.0001 0 0 0 33.839844 43.84375 C 33.945686 44.058616 34 44.27235 34 44.5 C 34 45.340812 33.340812 46 32.5 46 C 31.892544 46 31.387459 45.646168 31.146484 45.132812 A 1.0001 1.0001 0 0 0 31.130859 45.103516 C 31.130859 45.103516 31.130859 45.101562 31.130859 45.101562 C 31.077369 44.981074 31.037359 44.829082 31.019531 44.642578 A 1.0001 1.0001 0 0 0 30.994141 44.496094 L 29.085938 36.835938 A 1.0001 1.0001 0 0 0 28.789062 36.337891 L 23.773438 31.761719 A 1.0001 1.0001 0 0 0 23.578125 31.623047 C 23.172729 31.401606 22.855427 31.085736 22.597656 30.732422 L 22.636719 31.039062 A 1.0001 1.0001 0 0 0 22.494141 30.638672 C 22.492641 30.636372 22.489781 30.635113 22.488281 30.632812 A 1.0001 1.0001 0 0 0 22.363281 30.476562 L 22.474609 30.587891 C 22.179478 30.120331 22 29.586502 22 29 C 22 28.751074 22.045 28.496526 22.123047 28.212891 A 1.0001 1.0001 0 0 0 22.148438 28.076172 C 22.181487 27.949967 23.36114 23.449397 24.019531 20.392578 A 1.0001 1.0001 0 0 0 22.451172 19.375 L 18.888672 21.984375 A 1.0001 1.0001 0 0 0 18.566406 22.384766 L 16.005859 28.125 A 1.0001 1.0001 0 0 0 15.955078 28.265625 C 15.837137 28.691521 15.467059 29 15 29 C 14.43497 29 14 28.56503 14 28 C 14 27.813693 14.05318 27.64363 14.152344 27.482422 A 1.0001 1.0001 0 0 0 14.220703 27.347656 L 17.005859 20.777344 L 16.941406 20.861328 A 1.0001 1.0001 0 0 0 17.076172 20.625 C 17.142882 20.458946 17.258571 20.312681 17.412109 20.199219 A 1.0001 1.0001 0 0 0 17.609375 20.003906 L 17.539062 20.095703 L 23.384766 15.619141 L 23.386719 15.617188 C 23.910067 15.21751 24.55273 15 25.210938 15 z M 31.707031 19.185547 L 33.849609 22.222656 A 1.0001 1.0001 0 0 0 34.384766 22.605469 L 39.259766 24.037109 A 1.0001 1.0001 0 0 0 39.324219 24.0625 C 39.717562 24.19949 40 24.556969 40 25 C 40 25.56503 39.56503 26 39 26 C 38.882483 26 38.76756 25.976367 38.648438 25.929688 A 1.0001 1.0001 0 0 0 38.574219 25.90625 A 1.0001 1.0001 0 0 0 38.572266 25.90625 A 1.0001 1.0001 0 0 0 38.570312 25.90625 A 1.0001 1.0001 0 0 0 38.539062 25.894531 A 1.0001 1.0001 0 0 0 38.335938 25.863281 A 1.0001 1.0001 0 0 0 38.332031 25.863281 A 1.0001 1.0001 0 0 0 37.414062 26.365234 L 37.759766 25.669922 L 33.158203 24.355469 L 30.962891 21.916016 L 31.707031 19.185547 z M 38.332031 25.863281 C 38.290401 25.855781 38.244458 25.84521 38.236328 25.84375 C 38.236008 25.843692 38.232622 25.843794 38.232422 25.84375 A 1.0001 1.0001 0 0 0 38.224609 25.84375 C 38.224533 25.84375 38.286139 25.854961 38.332031 25.863281 z M 38.236328 25.84375 L 38.488281 25.878906 A 1.0001 1.0001 0 0 0 38.236328 25.84375 z M 21.357422 32.398438 C 21.69174 32.751451 22.072857 33.052116 22.488281 33.294922 L 23.988281 34.664062 A 1.0001 1.0001 0 0 0 23.722656 35.125 L 22.710938 38.839844 L 18.462891 44.375 L 19.246094 44.962891 A 1.0001 1.0001 0 0 0 17.785156 45.255859 C 17.521416 45.703731 17.054892 46 16.5 46 C 15.659188 46 15 45.340812 15 44.5 C 15 44.077422 15.168855 43.709585 15.445312 43.435547 A 1.0001 1.0001 0 0 0 15.53125 43.337891 L 20.294922 37.193359 A 1.0001 1.0001 0 0 0 20.486328 36.777344 L 21.357422 32.398438 z"/></svg>