<svg fill="#80c342" xmlns="http://www.w3.org/2000/svg"  viewBox="0 0 50 50" width="50px" height="50px"><path d="M 20.5 0.01171875 C 18.585024 0.01171875 17.011719 1.5850239 17.011719 3.5 C 17.011719 4.143494 17.235879 4.6664765 17.5 5.2148438 C 17.764121 5.763211 18.096297 6.3114552 18.423828 6.8105469 C 18.80812 7.3961312 19.14209 7.8510143 19.392578 8.1816406 L 16.816406 12.46875 A 0.98859885 0.98859885 0 0 0 16.810547 12.478516 L 15.712891 14.306641 L 9.359375 24.878906 C 7.2264243 28.429359 7.6683924 32.969159 10.445312 36.042969 A 0.98859885 0.98859885 0 0 0 10.476562 36.078125 L 21.298828 46.955078 A 0.98859885 0.98859885 0 0 0 21.306641 46.962891 C 24.95257 50.541024 30.618383 50.928776 34.767578 48.007812 A 0.98859885 0.98859885 0 0 0 35.082031 47.849609 C 40.098546 44.055588 40.698636 36.698249 36.363281 32.140625 L 35.050781 30.658203 C 33.84694 29.30081 33.632756 27.365457 34.460938 25.779297 A 0.98859885 0.98859885 0 0 0 34.568359 25.632812 L 39.865234 16.816406 A 0.98859885 0.98859885 0 0 0 39.527344 15.460938 L 23.201172 5.6523438 C 23.254487 5.5603359 23.312728 5.4714945 23.363281 5.3789062 C 23.685566 4.7886464 23.988281 4.2460551 23.988281 3.5 C 23.988281 1.5850239 22.414976 0.01171875 20.5 0.01171875 z M 20.5 1.9882812 C 21.347024 1.9882812 22.011719 2.6529761 22.011719 3.5 C 22.011719 3.479945 21.892621 3.9466974 21.628906 4.4296875 C 21.365191 4.9126776 21.003072 5.4646533 20.677734 5.9511719 C 20.55308 6.1378363 20.57316 6.1081253 20.466797 6.2675781 C 20.292141 6.0251674 20.271 6.0214886 20.076172 5.7246094 C 19.778703 5.271326 19.485879 4.7822734 19.28125 4.3574219 C 19.076621 3.9325703 18.988281 3.547006 18.988281 3.5 C 18.988281 2.6529761 19.652976 1.9882813 20.5 1.9882812 z M 22.195312 7.3554688 L 37.660156 16.644531 L 34.478516 21.941406 L 19.013672 12.648438 L 22.195312 7.3554688 z M 13.029297 22.609375 C 15.942924 23.804362 18 26.655859 18 30 C 18 32.931648 16.418296 35.487827 14.066406 36.880859 L 11.912109 34.716797 C 9.7130304 32.282607 9.3656377 28.708031 11.054688 25.896484 L 13.029297 22.609375 z M 36.603516 36.044922 C 38.115405 39.558373 37.147965 43.80989 33.890625 46.273438 C 31.288926 48.240861 27.897404 48.51947 25.083984 47.207031 C 25.701883 41.20805 30.551595 36.476129 36.603516 36.044922 z"/></svg>