<svg fill="#80c342" xmlns="http://www.w3.org/2000/svg"  viewBox="0 0 50 50" width="50px" height="50px"><path d="M 25 1.992188 C 19.488281 1.992188 14.777344 6.339844 11.421875 11.765625 C 8.066406 17.195313 6 23.800781 6 29.03125 C 6 39.492188 14.519531 47.988281 25 47.988281 C 35.480469 47.988281 44 39.492188 44 29.03125 C 44 23.800781 41.933594 17.195313 38.578125 11.765625 C 35.222656 6.339844 30.511719 1.992188 25 1.992188 Z M 25 3.992188 C 29.429688 3.992188 33.714844 7.703125 36.875 12.816406 C 37.3125 13.523438 37.71875 14.253906 38.105469 15 L 11.894531 15 C 12.28125 14.253906 12.6875 13.523438 13.125 12.816406 C 16.285156 7.703125 20.570313 3.992188 25 3.992188 Z M 10.925781 17 L 39.074219 17 C 39.914063 18.886719 40.589844 20.828125 41.082031 22.71875 L 40 21.480469 L 32.953125 29.535156 L 25 21.585938 L 17.046875 29.535156 L 10 21.480469 L 8.917969 22.71875 C 9.410156 20.828125 10.085938 18.886719 10.925781 17 Z M 17 23 C 16.449219 23 16 23.449219 16 24 C 16 24.550781 16.449219 25 17 25 C 17.550781 25 18 24.550781 18 24 C 18 23.449219 17.550781 23 17 23 Z M 33 23 C 32.449219 23 32 23.449219 32 24 C 32 24.550781 32.449219 25 33 25 C 33.550781 25 34 24.550781 34 24 C 34 23.449219 33.550781 23 33 23 Z M 25 24.414063 L 33.046875 32.464844 L 40 24.515625 L 41.796875 26.570313 L 41.828125 26.539063 C 41.9375 27.40625 42 28.246094 42 29.03125 C 42 32.375 41.019531 35.480469 39.347656 38.109375 L 39.347656 38 L 10.585938 38 C 8.957031 35.398438 8 32.332031 8 29.03125 C 8 28.246094 8.0625 27.40625 8.171875 26.539063 L 8.203125 26.570313 L 10 24.515625 L 16.953125 32.464844 Z M 10 30 C 9.449219 30 9 30.449219 9 31 C 9 31.550781 9.449219 32 10 32 C 10.550781 32 11 31.550781 11 31 C 11 30.449219 10.550781 30 10 30 Z M 25 30 C 24.449219 30 24 30.449219 24 31 C 24 31.550781 24.449219 32 25 32 C 25.550781 32 26 31.550781 26 31 C 26 30.449219 25.550781 30 25 30 Z M 40 30 C 39.449219 30 39 30.449219 39 31 C 39 31.550781 39.449219 32 40 32 C 40.550781 32 41 31.550781 41 31 C 41 30.449219 40.550781 30 40 30 Z M 12.035156 40 L 37.964844 40 C 34.847656 43.664063 30.203125 45.988281 25 45.988281 C 19.796875 45.988281 15.152344 43.664063 12.035156 40 Z"/></svg>