<svg fill="#80c342" xmlns="http://www.w3.org/2000/svg"  viewBox="0 0 50 50" width="50px" height="50px"><path d="M 25 2 C 21.710938 2 19 4.636719 19 7.890625 C 19 9.066406 19.332031 10.199219 19.652344 11.152344 C 19.972656 12.105469 20.285156 12.988281 20.300781 13.109375 C 20.300781 13.125 20.546875 15.292969 19.941406 17.160156 C 19.941406 17.164063 19.941406 17.164063 19.941406 17.167969 C 19.835938 17.460938 18.820313 20.332031 18.113281 22.296875 C 16.511719 20.136719 14.4375 17.335938 14.339844 17.203125 C 13.328125 15.738281 12.953125 13.773438 12.953125 13.773438 C 12.9375 13.675781 12.960938 12.832031 12.972656 11.917969 C 12.988281 11 12.96875 9.921875 12.644531 8.882813 C 11.980469 6.726563 10.097656 5.265625 7.984375 5.03125 C 7.28125 4.957031 6.554688 5.015625 5.835938 5.234375 C 2.972656 6.101563 1.359375 9.167969 2.242188 12.039063 C 2.566406 13.082031 3.167969 13.980469 3.703125 14.730469 C 4.234375 15.480469 4.71875 16.164063 4.78125 16.316406 L 4.789063 16.328125 L 4.796875 16.34375 C 4.796875 16.34375 5.589844 18.1875 5.578125 19.957031 L 5.582031 19.933594 C 5.570313 20.269531 5.433594 25.21875 5.367188 26.421875 L 5.363281 26.425781 C 5.179688 30.230469 5.960938 34.007813 7.507813 37.453125 C 8.988281 40.773438 9.878906 43.761719 10.046875 44.296875 L 10.078125 44.390625 C 10.429688 45.210938 11.308594 45.777344 12.515625 45.917969 C 13.5625 46.035156 14.910156 45.832031 16.625 45.203125 C 18.785156 46.957031 21.542969 48.015625 24.582031 48.015625 C 27.730469 48.015625 30.648438 46.902344 32.953125 45.046875 C 34.878906 45.808594 36.351563 46.046875 37.484375 45.917969 C 38.691406 45.777344 39.570313 45.210938 39.921875 44.390625 L 39.953125 44.296875 C 40.121094 43.761719 41.011719 40.773438 42.496094 37.453125 L 42.496094 37.449219 C 44.039063 34.007813 44.820313 30.230469 44.636719 26.425781 L 44.636719 26.421875 C 44.566406 25.21875 44.429688 20.269531 44.417969 19.933594 L 44.421875 19.957031 C 44.410156 18.1875 45.203125 16.34375 45.203125 16.34375 L 45.210938 16.328125 L 45.21875 16.316406 C 45.28125 16.164063 45.765625 15.480469 46.296875 14.730469 C 46.832031 13.980469 47.433594 13.082031 47.753906 12.039063 C 48.640625 9.167969 47.027344 6.101563 44.160156 5.234375 C 43.445313 5.015625 42.71875 4.953125 42.015625 5.03125 C 39.90625 5.261719 38.019531 6.726563 37.355469 8.878906 C 37.03125 9.917969 37.011719 11 37.027344 11.917969 C 37.042969 12.832031 37.066406 13.6875 37.046875 13.78125 C 37.046875 13.789063 36.667969 15.742188 35.660156 17.203125 C 35.558594 17.34375 33.457031 20.179688 31.851563 22.34375 C 31.144531 20.371094 30.144531 17.542969 30.046875 17.261719 C 29.4375 15.386719 29.6875 13.195313 29.6875 13.195313 L 29.6875 13.167969 C 29.707031 12.96875 30.003906 12.101563 30.328125 11.148438 C 30.65625 10.195313 31 9.070313 31 7.890625 C 31 4.636719 28.289063 2 25 2 Z M 25 4 C 27.234375 4 29 5.742188 29 7.890625 C 29 8.660156 28.742188 9.613281 28.4375 10.503906 C 28.136719 11.390625 27.78125 12.132813 27.699219 12.964844 C 27.699219 12.976563 27.65625 13.414063 27.640625 14 L 22.347656 14 C 22.335938 13.335938 22.28125 12.847656 22.28125 12.847656 L 22.28125 12.84375 C 22.179688 12.082031 21.84375 11.394531 21.546875 10.515625 C 21.253906 9.636719 21 8.667969 21 7.890625 C 21 5.742188 22.765625 4 25 4 Z M 7.101563 7.011719 C 8.703125 6.863281 10.238281 7.855469 10.734375 9.46875 C 10.941406 10.140625 10.988281 11.042969 10.972656 11.886719 C 10.960938 12.726563 10.859375 13.40625 10.980469 14.117188 L 10.980469 14.125 C 10.980469 14.125 11.070313 14.5625 11.238281 15.152344 L 6.964844 16.449219 C 6.792969 15.941406 6.640625 15.566406 6.632813 15.550781 L 6.628906 15.546875 C 6.328125 14.828125 5.824219 14.265625 5.328125 13.570313 C 4.832031 12.871094 4.363281 12.113281 4.15625 11.449219 C 3.585938 9.605469 4.59375 7.699219 6.417969 7.148438 C 6.644531 7.078125 6.875 7.03125 7.101563 7.011719 Z M 42.898438 7.011719 C 43.125 7.03125 43.355469 7.078125 43.582031 7.148438 C 45.40625 7.699219 46.414063 9.605469 45.84375 11.449219 C 45.636719 12.113281 45.167969 12.871094 44.671875 13.570313 C 44.175781 14.265625 43.671875 14.828125 43.371094 15.546875 C 43.371094 15.546875 43.371094 15.550781 43.371094 15.550781 C 43.359375 15.566406 43.207031 15.941406 43.035156 16.449219 L 38.761719 15.152344 C 38.929688 14.5625 39.019531 14.125 39.019531 14.125 L 39.019531 14.113281 C 39.140625 13.40625 39.039063 12.726563 39.027344 11.886719 C 39.011719 11.042969 39.058594 10.136719 39.265625 9.46875 C 39.765625 7.855469 41.300781 6.863281 42.898438 7.011719 Z M 22.246094 16 L 27.730469 16 C 27.808594 16.597656 27.933594 17.238281 28.140625 17.875 L 28.144531 17.890625 L 28.152344 17.902344 C 28.152344 17.90625 28.183594 17.996094 28.1875 18 L 21.765625 18 C 21.769531 17.988281 21.832031 17.816406 21.832031 17.8125 L 21.839844 17.796875 L 21.84375 17.78125 C 22.039063 17.179688 22.164063 16.574219 22.246094 16 Z M 11.945313 17.03125 C 12.152344 17.464844 12.398438 17.914063 12.695313 18.34375 L 12.703125 18.355469 L 12.714844 18.363281 C 12.726563 18.382813 13 18.753906 13.042969 18.808594 L 7.5625 20.46875 C 7.566406 20.40625 7.578125 20.011719 7.578125 20 L 7.578125 19.96875 C 7.582031 19.417969 7.53125 18.886719 7.453125 18.390625 Z M 38.054688 17.03125 L 42.546875 18.390625 C 42.46875 18.886719 42.417969 19.417969 42.421875 19.96875 L 42.421875 20 C 42.421875 20.011719 42.433594 20.40625 42.4375 20.46875 L 36.957031 18.8125 C 37 18.753906 37.277344 18.382813 37.289063 18.363281 L 37.296875 18.355469 L 37.304688 18.34375 C 37.601563 17.910156 37.847656 17.464844 38.054688 17.03125 Z M 21.054688 20 L 28.894531 20 C 29.253906 21.015625 29.480469 21.644531 29.894531 22.804688 C 28.507813 22.28125 27.003906 21.984375 25.421875 21.984375 C 23.464844 21.984375 21.605469 22.425781 19.917969 23.195313 C 20.355469 21.984375 20.640625 21.183594 21.054688 20 Z M 14.308594 20.515625 C 15.441406 22.050781 16.429688 23.394531 17.402344 24.691406 C 14.25 27.0625 12.136719 30.773438 11.992188 34.964844 C 11.875 38.289063 13.035156 41.320313 15.015625 43.628906 C 13.988281 43.917969 13.226563 43.984375 12.738281 43.929688 C 12.027344 43.847656 11.910156 43.582031 11.921875 43.609375 C 11.761719 43.089844 10.851563 40.046875 9.332031 36.636719 L 9.332031 36.632813 C 7.90625 33.460938 7.195313 29.996094 7.359375 26.53125 L 7.359375 26.527344 C 7.40625 25.707031 7.445313 24.1875 7.492188 22.578125 Z M 35.695313 20.515625 L 42.503906 22.578125 C 42.554688 24.191406 42.59375 25.714844 42.640625 26.53125 C 42.804688 29.996094 42.09375 33.460938 40.667969 36.632813 L 40.667969 36.636719 C 39.148438 40.046875 38.238281 43.089844 38.078125 43.609375 C 38.089844 43.582031 37.972656 43.847656 37.261719 43.929688 C 36.707031 43.992188 35.816406 43.910156 34.566406 43.507813 C 36.601563 41.234375 37.894531 38.28125 38.007813 35.035156 C 38.160156 30.640625 36.097656 26.746094 32.832031 24.378906 C 33.832031 23.039063 34.648438 21.9375 35.695313 20.515625 Z M 25.421875 24.015625 C 31.507813 24.015625 36.191406 28.871094 35.980469 34.964844 C 35.765625 41.058594 30.671875 45.984375 24.582031 45.984375 C 18.492188 45.984375 13.808594 41.128906 14.023438 35.035156 C 14.234375 28.941406 19.332031 24.015625 25.421875 24.015625 Z M 24 26 C 22.894531 26 22 26.894531 22 28 C 22 29.105469 22.894531 30 24 30 C 25.105469 30 26 29.105469 26 28 C 26 26.894531 25.105469 26 24 26 Z M 30 28 C 28.894531 28 28 28.894531 28 30 C 28 31.105469 28.894531 32 30 32 C 31.105469 32 32 31.105469 32 30 C 32 28.894531 31.105469 28 30 28 Z M 25 32 C 23.894531 32 23 32.894531 23 34 C 23 35.105469 23.894531 36 25 36 C 26.105469 36 27 35.105469 27 34 C 27 32.894531 26.105469 32 25 32 Z"/></svg>