<svg fill="#80c342" xmlns="http://www.w3.org/2000/svg"  viewBox="0 0 512 512" width="64px" height="64px"><path d="M 347.60352 20.21875 A 122.9644 122.9644 0 0 0 239.70508 94.267578 L 79.794922 94.267578 A 74.88 74.88 0 0 0 5.0039062 169.06641 L 5.0039062 221.02734 A 6 6 0 0 0 17.003906 221.02734 L 17.003906 169.06641 A 62.8661 62.8661 0 0 1 79.794922 106.26758 L 235.12305 106.26758 A 122.956 122.956 0 0 0 232.77539 114.82227 A 122.9644 122.9644 0 0 0 232.75586 114.89453 A 122.956 122.956 0 0 0 232.75391 114.90234 A 122.9644 122.9644 0 0 0 230.54102 126.97461 A 122.956 122.956 0 0 0 273.01758 236.9668 A 37.8463 37.8463 0 0 1 279.88867 244.50391 A 37.8777 37.8777 0 0 1 281.87305 247.70898 A 37.8463 37.8463 0 0 1 281.87891 247.7207 A 37.8777 37.8777 0 0 1 283.5332 251.11133 A 37.8463 37.8463 0 0 1 283.53711 251.12109 A 37.8777 37.8777 0 0 1 284.8457 254.66406 A 37.8463 37.8463 0 0 1 284.84766 254.66992 A 37.8777 37.8777 0 0 1 285.79688 258.32812 A 37.8777 37.8777 0 0 1 286.37891 262.07031 A 37.8463 37.8463 0 0 1 286.58398 265.84766 A 37.8777 37.8777 0 0 1 286.58398 265.84961 A 6 6 0 0 0 286.80273 267.45117 A 6 6 0 0 0 286.80273 267.45508 A 6 6 0 0 0 286.99219 268.02148 A 6 6 0 0 0 286.99219 268.02344 A 6 6 0 0 0 287.53516 269.08984 A 6 6 0 0 0 287.53516 269.0918 A 6 6 0 0 0 288.2793 270.02734 A 6 6 0 0 0 292.58398 271.84961 L 412.30469 271.84961 A 6.0027 6.0027 0 0 0 416.48438 270.15039 A 6.0027 6.0027 0 0 0 418.30469 265.84766 A 37.7152 37.7152 0 0 1 418.38477 263.75977 A 37.1334 37.1334 0 0 1 418.52148 262.24023 A 37.7152 37.7152 0 0 1 418.81641 259.85547 A 37.1334 37.1334 0 0 1 419.05469 258.61133 A 37.7152 37.7152 0 0 1 419.60352 256.19336 A 37.1334 37.1334 0 0 1 419.99414 254.89062 A 37.7152 37.7152 0 0 1 420.71875 252.72656 A 37.1334 37.1334 0 0 1 421.37891 251.12305 A 37.7152 37.7152 0 0 1 422.38867 248.87891 A 37.9413 37.9413 0 0 1 431.74219 237.07227 A 37.9413 37.9413 0 0 1 431.78516 237.03125 A 122.9644 122.9644 0 0 0 431.78711 237.0293 A 123.14 123.14 0 0 0 431.79297 237.02539 A 123.14 123.14 0 0 0 436.89453 232.35547 A 122.9644 122.9644 0 0 0 441.75586 227.41016 A 123.14 123.14 0 0 0 445.62305 223.17383 A 122.9644 122.9644 0 0 0 449.81836 217.95117 A 123.14 123.14 0 0 0 453.10547 213.53516 A 122.9644 122.9644 0 0 0 456.86914 207.75195 A 123.14 123.14 0 0 0 459.625 203.15039 A 122.9644 122.9644 0 0 0 462.82031 196.96289 A 123.14 123.14 0 0 0 465.08008 192.16211 A 122.9644 122.9644 0 0 0 467.6582 185.65039 A 123.14 123.14 0 0 0 469.42383 180.65625 A 122.9644 122.9644 0 0 0 471.32812 173.95117 A 123.14 123.14 0 0 0 472.59961 168.75195 A 122.9644 122.9644 0 0 0 473.80469 162.00586 A 123.14 123.14 0 0 0 474.57227 156.54883 A 122.9644 122.9644 0 0 0 475.08008 149.93945 A 123.14 123.14 0 0 0 475.31055 144.16602 A 122.9644 122.9644 0 0 0 475.16406 137.87695 A 123.14 123.14 0 0 0 474.79492 131.75195 A 122.9644 122.9644 0 0 0 474.06641 125.875 A 123.14 123.14 0 0 0 473.56055 121.78711 A 62.6335 62.6335 0 0 1 495.00391 169.06641 L 495.00391 417.07617 A 62.8661 62.8661 0 0 1 432.20508 479.86719 L 79.794922 479.86719 A 62.8611 62.8611 0 0 1 17.003906 417.07617 L 17.003906 267.82617 A 6 6 0 0 0 5.0039062 267.82617 L 5.0039062 417.07617 A 74.8748 74.8748 0 0 0 79.794922 491.86719 L 432.20508 491.86719 A 74.88 74.88 0 0 0 507.00391 417.07617 L 507.00391 169.06641 A 74.6393 74.6393 0 0 0 468.95312 103.99609 A 122.9644 122.9644 0 0 0 347.60352 20.21875 z M 351.64258 32.132812 A 110.962 110.962 0 0 1 462.46289 128.65234 A 110.962 110.962 0 0 1 462.46289 128.6543 A 111.09 111.09 0 0 1 462.5 129.11523 A 110.962 110.962 0 0 1 463.34961 139.64648 A 111.09 111.09 0 0 1 463.14062 150.68359 A 111.09 111.09 0 0 1 424.03906 227.86523 A 110.962 110.962 0 0 1 424.03711 227.86719 A 49.866 49.866 0 0 0 422.64648 229.0957 A 49.7878 49.7878 0 0 0 420.67188 231.06055 A 49.866 49.866 0 0 0 419.01953 232.75391 A 49.7878 49.7878 0 0 0 417.31836 234.82812 A 49.866 49.866 0 0 0 415.90234 236.60352 A 49.7878 49.7878 0 0 0 414.36914 238.9043 A 49.866 49.866 0 0 0 413.16602 240.76758 A 49.7878 49.7878 0 0 0 411.86133 243.23047 A 49.866 49.866 0 0 0 410.98047 244.89258 A 49.1489 49.1489 0 0 0 410.73047 245.4375 A 49.7878 49.7878 0 0 0 410.66211 245.58789 A 49.1489 49.1489 0 0 0 408.87305 250.15625 A 49.1489 49.1489 0 0 0 406.66602 259.84766 L 298.2168 259.84766 A 49.9844 49.9844 0 0 0 296.77148 252.66797 A 49.9844 49.9844 0 0 0 295.45117 248.70312 A 49.9844 49.9844 0 0 0 295.19141 247.92383 A 50.0212 50.0212 0 0 0 295.18555 247.9082 A 49.9844 49.9844 0 0 0 293.14453 243.36133 A 50.0212 50.0212 0 0 0 293.13867 243.34961 A 49.9844 49.9844 0 0 0 290.65234 239.02734 A 50.0212 50.0212 0 0 0 290.64648 239.01953 A 50.0212 50.0212 0 0 0 280.77539 227.80469 A 110.5615 110.5615 0 0 1 258.95508 202.93555 A 110.5615 110.5615 0 0 1 253.47266 193.36328 A 110.5953 110.5953 0 0 1 253.4707 193.36133 A 110.5953 110.5953 0 0 1 250.62305 186.98633 A 110.5953 110.5953 0 0 1 248.95898 183.25977 A 110.5615 110.5615 0 0 1 247.14844 177.79688 A 110.5953 110.5953 0 0 1 245.48242 172.77148 A 110.5615 110.5615 0 0 1 243.58594 164.29688 A 110.5953 110.5953 0 0 1 243.07031 161.98633 A 110.5615 110.5615 0 0 1 242.37695 156.25195 A 110.5953 110.5953 0 0 1 241.74414 151.00781 A 110.5615 110.5615 0 0 1 241.52344 139.95703 C 241.5248 139.90742 241.52786 139.85819 241.5293 139.80859 A 109.431 109.431 0 0 1 241.78516 134.90234 C 241.80602 134.62143 241.82659 134.34092 241.84961 134.06055 A 109.431 109.431 0 0 1 243.11328 124.23828 C 243.20787 123.69841 243.30759 123.16035 243.41016 122.62305 A 109.431 109.431 0 0 1 245.33203 114.33594 C 245.62465 113.26639 245.92976 112.20153 246.25391 111.14453 A 109.431 109.431 0 0 1 248.36328 104.94336 C 264.05891 62.92517 304.8026 32.463343 351.64258 32.132812 z M 47.943359 146.54492 A 11.3646 11.3646 0 0 0 36.589844 157.89648 L 36.589844 223.90625 A 11.3644 11.3644 0 0 0 47.943359 235.25781 L 50.363281 235.25781 A 44.3569 44.3569 0 1 0 50.363281 146.54492 L 47.943359 146.54492 z M 134.35938 146.54492 A 11.3645 11.3645 0 0 0 123.00781 157.89648 L 123.00781 223.90625 A 11.3644 11.3644 0 0 0 134.35938 235.25781 L 136.7793 235.25781 A 44.3569 44.3569 0 0 0 136.7793 146.54492 L 134.35938 146.54492 z M 104.19727 146.54688 A 6 6 0 0 0 98.373047 152.54492 L 98.373047 229.25781 A 6 6 0 0 0 104.37305 235.25781 A 6 6 0 0 0 110.37305 229.25781 L 110.37305 152.54492 A 6 6 0 0 0 104.19727 146.54688 z M 48.589844 158.54492 L 50.363281 158.54492 A 32.3569 32.3569 0 1 1 50.363281 223.25781 L 48.589844 223.25781 L 48.589844 158.54492 z M 135.00586 158.54492 L 136.7793 158.54492 A 32.3569 32.3569 0 0 1 136.7793 223.25781 L 135.00586 223.25781 L 135.00586 158.54492 z M 11.179688 233.92969 A 6 6 0 0 0 5.0039062 239.92773 L 5.0039062 248.92773 A 6 6 0 0 0 11.003906 254.92773 A 6 6 0 0 0 17.003906 248.92773 L 17.003906 239.92773 A 6 6 0 0 0 11.179688 233.92969 z M 82.802734 248.71094 A 6.0001442 6.0001442 0 0 0 77.587891 251.62305 L 62.660156 276.48047 L 47.734375 251.62109 A 6.0001871 6.0001871 0 0 0 37.447266 257.79883 L 56.660156 289.79883 L 56.660156 331.42383 A 6 6 0 0 0 62.660156 337.42383 A 6 6 0 0 0 68.660156 331.42383 L 68.660156 289.80078 L 87.875 257.80078 A 6.0001442 6.0001442 0 0 0 82.802734 248.71094 z M 126.98047 248.71094 C 104.99807 248.71094 87.115234 268.60986 87.115234 293.06836 C 87.115234 317.52686 104.99807 337.42383 126.98047 337.42383 C 148.96287 337.42383 166.84766 317.52686 166.84766 293.06836 C 166.84766 268.60986 148.96287 248.71094 126.98047 248.71094 z M 180.56836 248.71094 A 6.001 6.001 0 0 0 175.61523 251.39258 C 174.22943 253.47948 173.94237 253.91352 174.41797 310.97852 A 26.6723 26.6723 0 0 0 227.75977 310.75195 L 227.75977 254.71094 A 6 6 0 0 0 215.75977 254.71094 L 215.75977 310.75195 A 14.6721 14.6721 0 0 1 186.41797 310.87891 C 186.04587 266.25971 186.33705 257.66945 186.46875 256.03125 A 6.001 6.001 0 0 0 180.56836 248.71094 z M 126.98047 260.71094 C 142.34567 260.71094 154.84766 275.22656 154.84766 293.06836 C 154.84766 310.91016 142.34567 325.42383 126.98047 325.42383 C 111.61527 325.42383 99.115234 310.91016 99.115234 293.06836 C 99.115234 275.22656 111.61527 260.71094 126.98047 260.71094 z M 308.25781 273.24609 A 15.102 15.102 0 0 0 295.18945 295.88086 C 295.19265 295.88626 295.23528 295.96375 295.23828 295.96875 L 295.30078 296.07422 A 15.09 15.09 0 0 0 308.35938 303.5918 L 396.5293 303.5918 L 396.53125 303.5918 A 15.0915 15.0915 0 0 0 409.5918 296.07227 L 409.69141 295.89648 L 409.70117 295.88086 A 15.102 15.102 0 0 0 396.63281 273.24609 L 308.25781 273.24609 z M 308.25781 285.24609 L 396.63281 285.24609 A 2.9617 2.9617 0 0 1 399.2793 286.76367 A 3.114 3.114 0 0 1 399.2832 289.92188 L 399.18945 290.08789 A 3.06 3.06 0 0 1 396.5293 291.5918 L 308.35938 291.5918 A 3.09 3.09 0 0 1 305.66016 290.01953 L 305.60938 289.93164 A 3.1145 3.1145 0 0 1 305.60938 286.76367 A 2.9617 2.9617 0 0 1 308.25781 285.24609 z M 314.75781 305.23047 A 11.2427 11.2427 0 0 0 306.93164 324.55664 A 65.5185 65.5185 0 0 0 352.43945 342.81445 A 65.5293 65.5293 0 0 0 397.95508 324.55664 A 11.2428 11.2428 0 0 0 390.13086 305.23047 L 314.75781 305.23047 z M 316.68359 317.23047 L 388.20508 317.23047 A 53.8578 53.8578 0 0 1 316.68359 317.23047 z M 380.00586 342.77148 A 31.3817 31.3817 0 0 0 349.44727 366.83203 A 6.0000308 6.0000308 0 1 0 361.10938 369.66406 A 19.44 19.44 0 0 1 399.44922 374.31641 A 19.6775 19.6775 0 0 1 385.69727 393.01758 C 385.54887 393.06318 385.40772 393.11998 385.26562 393.17578 A 5.9994 5.9994 0 0 0 379.9375 399.13477 L 379.9375 416.26953 A 6 6 0 0 0 391.9375 416.26953 L 391.9375 403.50781 A 31.5649 31.5649 0 0 0 380.00586 342.77148 z M 152.2207 349.7793 A 6 6 0 0 0 146.2207 355.7793 L 146.2207 412.73242 L 112.00391 353.57812 A 7.6052 7.6052 0 0 0 97.816406 357.38672 L 97.816406 432.49219 A 6 6 0 0 0 109.81641 432.49219 L 109.81641 373.76172 L 145.14648 434.8457 A 7.0072 7.0072 0 0 0 158.2207 431.33789 L 158.2207 355.7793 A 6 6 0 0 0 152.2207 349.7793 z M 204.42188 349.7793 C 182.43937 349.7793 164.55469 369.67627 164.55469 394.13477 C 164.55469 418.59327 182.43937 438.49219 204.42188 438.49219 C 226.40438 438.49219 244.28711 418.59327 244.28711 394.13477 C 244.28711 369.67627 226.40377 349.7793 204.42188 349.7793 z M 42.416016 350.87891 A 6 6 0 0 0 36.591797 356.87695 L 36.591797 433.58984 A 6 6 0 0 0 48.591797 433.58984 L 48.591797 407.09961 L 51.410156 403.95898 L 81.015625 436.94336 A 6.0001844 6.0001844 0 0 0 89.945312 428.92773 L 59.472656 394.97656 L 88.5 362.63477 A 6.0000097 6.0000097 0 1 0 79.570312 354.61914 L 48.591797 389.13477 L 48.591797 356.87695 A 6 6 0 0 0 42.416016 350.87891 z M 322.11719 350.87891 A 6.0026 6.0026 0 0 0 315.98047 356.08984 L 308.20117 414.90625 L 296.83984 389.0332 A 8.3177 8.3177 0 0 0 289.22461 384.06055 L 289.2168 384.06055 A 8.3173 8.3173 0 0 0 281.60352 389.04688 L 270.33984 414.82812 L 262.57031 356.08984 A 6.0000348 6.0000348 0 1 0 250.67383 357.66406 L 260.67383 433.26367 A 7.2611 7.2611 0 0 0 274.52539 435.21875 L 289.23242 401.55664 L 304.0293 435.25 A 7.1837 7.1837 0 0 0 310.64453 439.59375 A 7.5179 7.5179 0 0 0 311.69922 439.51758 A 7.1945 7.1945 0 0 0 317.87695 433.28125 L 327.87695 357.66406 A 6 6 0 0 0 322.71484 350.92773 A 6.0026 6.0026 0 0 0 322.11719 350.87891 z M 204.42188 361.7793 C 219.78717 361.7793 232.28711 376.29297 232.28711 394.13477 C 232.28711 411.97657 219.78707 426.49219 204.42188 426.49219 C 189.05658 426.49219 176.55469 411.97657 176.55469 394.13477 C 176.55469 376.29297 189.05657 361.7793 204.42188 361.7793 z M 386.0293 427.32422 A 6 6 0 0 0 380.0293 433.32422 L 380.0293 433.58984 A 6 6 0 0 0 392.0293 433.58984 L 392.0293 433.32422 A 6 6 0 0 0 386.0293 427.32422 z"/></svg>