<svg xmlns="http://www.w3.org/2000/svg"  viewBox="0 0 50 50" width="50px" height="50px"><path d="M 16.59375 1 C 14.59375 1 12.914063 2.289063 12.3125 4.1875 L 12.09375 5 L 11.59375 5 C 10.140625 5 8.8125 5.492188 7.71875 6.28125 L 4.71875 3.28125 C 4.476563 3.03125 4.121094 2.925781 3.78125 3 C 3.40625 3.066406 3.105469 3.339844 3 3.703125 C 2.894531 4.070313 3.003906 4.460938 3.28125 4.71875 L 45.28125 46.71875 C 45.679688 47.117188 46.320313 47.117188 46.71875 46.71875 C 47.117188 46.320313 47.117188 45.679688 46.71875 45.28125 L 40.625 39.1875 L 44.09375 15 L 46 15 C 46.601563 15 47 14.601563 47 14 L 47 11.59375 C 47 7.992188 44.007813 5 40.40625 5 L 39.90625 5 L 39.6875 4.1875 C 39.085938 2.289063 37.40625 1 35.40625 1 Z M 16.8125 3 L 35.59375 3 C 36.695313 3 37.699219 3.710938 38 4.8125 L 38.40625 6.3125 C 38.507813 6.710938 38.90625 7 39.40625 7 L 40.6875 7 C 43.1875 7 45.3125 9.09375 45.3125 11.59375 L 45.3125 13 L 14.4375 13 L 9.1875 7.75 C 9.90625 7.285156 10.753906 7 11.6875 7 L 13 7 C 13.398438 7 13.800781 6.710938 14 6.3125 L 14.40625 4.8125 C 14.707031 3.8125 15.710938 3 16.8125 3 Z M 5.3125 9.59375 C 5.113281 10.195313 5 10.894531 5 11.59375 L 5 14 C 5 14.601563 5.398438 15 6 15 L 7.90625 15 L 12.40625 46.3125 C 12.605469 47.8125 13.992188 49 15.59375 49 L 36.5 49 C 38.101563 49 39.488281 47.8125 39.6875 46.3125 L 40 44.1875 L 38.09375 42.5 L 37.59375 46.09375 C 37.59375 46.59375 37.007813 47 36.40625 47 L 15.59375 47 C 14.992188 47 14.507813 46.601563 14.40625 46 L 13.6875 41 L 36.6875 41 L 34.6875 39 L 13.40625 39 L 11 23 L 18.6875 23 L 16.6875 21 L 10.8125 21 L 10 15 L 10.8125 15 L 8.8125 13 L 7 13 L 7 11.3125 Z M 16.4375 15 L 42.09375 15 L 41.3125 21 L 22.4375 21 Z M 24.4375 23 L 41 23 L 38.84375 37.40625 Z"/></svg>