<svg xmlns="http://www.w3.org/2000/svg" xmlns:xlink="http://www.w3.org/1999/xlink" viewBox="0 0 528.309 432.589">
  <defs>
    <linearGradient id="linear-gradient" x1="0.024" y1="0.779" x2="0.999" y2="0.307" gradientUnits="objectBoundingBox">
      <stop offset="0" stop-color="#2eabe2"/>
      <stop offset="1" stop-color="#05a88b"/>
    </linearGradient>
  </defs>
  <g id="CL_DynamicLogo" transform="translate(-88.8 -235.6)">
    <g id="Group_307" data-name="Group 307" transform="translate(88.8 635.227)">
      <path id="Path_560" data-name="Path 560" d="M88.8,567.526c0-11.452,6.245-16.456,16.836-16.456,5.815,0,9.514,1.545,12.529,4.611l-4.865,4.865a10.182,10.182,0,0,0-7.715-3.015c-6.8,0-9.691,3.446-9.691,10.084,0,6.423,2.407,10.084,9.729,10.084a10.419,10.419,0,0,0,8.095-3.23l4.649,4.561c-2.546,2.622-5.941,4.953-13.175,4.953C93.284,583.982,88.8,578.078,88.8,567.526Z" transform="translate(-88.8 -551.057)" fill="#fff"/>
      <path id="Path_561" data-name="Path 561" d="M114.95,567.526c0-11.971,6.714-16.456,16.887-16.456s16.925,4.484,16.925,16.456c0,12.009-6.765,16.494-16.925,16.494S114.95,579.548,114.95,567.526Zm26.654.127c0-6.245-2.458-10.122-9.78-10.122s-9.78,3.876-9.78,10.122,2.458,10.16,9.78,10.16S141.6,573.9,141.6,567.652Z" transform="translate(-81.823 -551.057)" fill="#fff"/>
      <path id="Path_562" data-name="Path 562" d="M146.463,551.48h7.626L168.771,571.6V551.48h6.714v31.911h-6.461l-15.81-21.536v21.536H146.45V551.48Z" transform="translate(-73.419 -550.948)" fill="#fff"/>
      <path id="Path_563" data-name="Path 563" d="M175.6,551.48h7.626L197.911,571.6V551.48h6.714v31.911h-6.461l-15.81-21.536v21.536H175.59V551.48Z" transform="translate(-65.644 -550.948)" fill="#fff"/>
      <path id="Path_564" data-name="Path 564" d="M204.74,551.48h23.993v6.372H211.809v6.207H228.3v6.157H211.809v7.069h17.1V583.4H204.753V551.48Z" transform="translate(-57.866 -550.948)" fill="#fff"/>
      <path id="Path_565" data-name="Path 565" d="M227.55,567.526c0-11.452,6.245-16.456,16.836-16.456,5.815,0,9.514,1.545,12.529,4.611l-4.865,4.865a10.172,10.172,0,0,0-7.7-3.015c-6.8,0-9.691,3.446-9.691,10.084,0,6.423,2.407,10.084,9.729,10.084a10.419,10.419,0,0,0,8.095-3.23l4.649,4.561c-2.546,2.622-5.941,4.953-13.175,4.953C232.034,583.982,227.55,578.078,227.55,567.526Z" transform="translate(-51.781 -551.057)" fill="#fff"/>
      <path id="Path_566" data-name="Path 566" d="M264.562,557.852H253.49V551.48h29.2v6.372H271.669v25.539h-7.107Z" transform="translate(-44.859 -550.948)" fill="#fff"/>
      <path id="Path_567" data-name="Path 567" d="M280.7,551.48h23.993v6.372H287.769v6.207h16.494v6.157H287.769v7.069h17.1V583.4H280.7Z" transform="translate(-37.6 -550.948)" fill="#fff"/>
      <path id="Path_568" data-name="Path 568" d="M305.213,551.48h11.452c12.579,0,17.786,3.268,17.786,15.936,0,12.44-5.384,15.974-17.963,15.974H305.2V551.48Zm11.667,25.754c8.7,0,10.464-2.622,10.464-9.818s-1.469-9.6-10.59-9.6h-4.484v19.42Z" transform="translate(-31.063 -550.948)" fill="#fff"/>
      <path id="Path_569" data-name="Path 569" d="M342.68,551.48h3.408v28.807H363.05v3.1H342.68V551.48Z" transform="translate(-21.063 -550.948)" fill="#fff"/>
      <path id="Path_570" data-name="Path 570" d="M363.79,551.48H384.9v3.23H367.2v10.552h17.267v3.192H367.2V580.3h17.875v3.1H363.8V551.48Z" transform="translate(-15.431 -550.948)" fill="#fff"/>
      <path id="Path_571" data-name="Path 571" d="M397.352,551.31h3.408l12.795,32.126h-3.446l-2.926-7.36H390.815l-2.888,7.36H384.57Zm8.614,21.662-6.98-17.571-7.018,17.571Z" transform="translate(-9.886 -550.993)" fill="#fff"/>
      <path id="Path_572" data-name="Path 572" d="M412.41,551.48h10.426c11.971,0,16.367,3.623,16.367,15.936,0,12.06-4.915,15.974-16.924,15.974H412.41Zm10,28.82c10.084,0,13.39-3.408,13.39-12.883,0-9.653-2.8-12.744-12.921-12.744h-7.069V580.3Z" transform="translate(-2.459 -550.948)" fill="#fff"/>
      <path id="Path_573" data-name="Path 573" d="M439.13,551.48h21.105v3.23h-17.7v10.552H459.8v3.192H442.538V580.3h17.875v3.1h-21.27V551.48Z" transform="translate(4.671 -550.948)" fill="#fff"/>
      <path id="Path_574" data-name="Path 574" d="M474.853,570.391h-9.514V583.4H462.02V551.49H475.8c7.411,0,10.768,3.015,10.768,9.349,0,5.511-2.622,8.7-8.184,9.438l7.715,13.137h-3.623Zm.988-3.1c4.523,0,7.322-1.381,7.322-6.334s-2.711-6.334-7.449-6.334H465.339v12.668Z" transform="translate(10.778 -550.945)" fill="#fff"/>
      <path id="Path_575" data-name="Path 575" d="M485.34,580.273l1.723-2.584a20.653,20.653,0,0,0,11.414,3.23c6.587,0,9.514-1.85,9.514-6.245,0-4.523-3.788-5.169-9.514-6.207-6.891-1.2-11.541-2.369-11.541-8.83,0-6.157,3.965-8.576,11.541-8.576,4.991,0,8.576,1.115,11.11,2.838l-1.812,2.762a17.414,17.414,0,0,0-9.3-2.5c-5.726,0-8.184,1.6-8.184,5.384,0,4.054,3.319,4.827,9.007,5.853,6.98,1.254,12.009,2.28,12.009,9.134,0,6.334-4.054,9.387-12.744,9.387A22.976,22.976,0,0,1,485.34,580.273Z" transform="translate(17 -551.06)" fill="#fff"/>
    </g>
    <path id="Path_576" data-name="Path 576" d="M192.263,568.758l-1.748-.177L181.1,533.844l1.685-.051ZM188.792,532.6l-1.622.494,13.213,35.483,1.736-.253Zm5.675-2.838-1.507.95,17.115,35.293,1.66-.747Zm5.156-4.548-1.343,1.419L219.271,560.6l1.546-1.254Zm4.446-6.22-1.14,1.875,24.639,31.366,1.343-1.786Zm3.547-7.791-.874,2.28L234.625,540.9l1.089-2.306Zm2.47-9.222-.557,2.648,30.479,22.093.747-2.774Zm1.267-10.362-.215,2.939,32.215,15.518.355-3.154Zm-.051-11.211.152,3.129,32.9,7.956-.089-3.433Zm-1.381-11.629.507,3.205,32.4-.253-.532-3.547Zm-9.02-84.965L186.068,418.6l1.812,1.951,15.05-34.786Zm-11.68-9.1-9.97,37.852,1.888,1.47,10.147-37.966Zm-11.655-5.84-5.245,39.448,1.9.975,5.384-39.638Zm-11.249-2.66-.874,39.689,1.862.481.95-39.93Zm-10.476.279,3.053,38.764h1.761l-3.028-39.018Zm-9.514,2.914,6.448,36.889,1.622-.443-6.461-37.13Zm-6.98,4.117-1.393,1.064,9.286,34.267,1.457-.849Zm-7.385,6.8-1.178,1.381,11.579,31.1,1.267-1.2Zm-6.131,8.412-.95,1.634,13.365,27.553,1.051-1.508Zm-4.89,9.729-.735,1.837,14.682,23.765.836-1.774Zm-3.648,10.755-.519,1.976,15.582,19.826.621-1.976Zm-2.47,11.515-.317,2.09,16.1,15.822.393-2.141Zm-1.317,12.06-.114,2.179,16.278,11.794.177-2.268Zm-.215,12.427.076,2.217,16.164,7.791-.038-2.344Zm.823,12.6.253,2.23,15.772,3.813L129.9,461.5Zm1.824,12.643.418,2.23,15.126-.114-.443-2.382Zm16.975,8.4-14.188,4.155.6,2.192,14.226-4Zm2.559,8.488-13.023,7.956.747,2.141,13.1-7.816Zm3.205,8.2-11.629,11.705.912,2.052,11.705-11.579Zm3.813,7.766-9.97,15.341,1.051,1.951,10.058-15.265Zm4.383,7.2-8.057,18.888,1.191,1.812,8.158-18.85Zm4.89,6.5-5.865,22.3,1.33,1.647,5.967-22.309Zm5.333,5.637-3.4,25.513,1.457,1.444,3.471-25.577Zm5.7,4.649-.621,28.465,1.558,1.191.671-28.579Zm5.979,3.522,2.445,31.075,1.647.912-2.42-31.24Zm6.144,2.217,5.8,33.216,1.71.557-5.815-33.406Zm170.044-3.762-4.383.127,15.569,56.018,4.561.469Zm16.215-2.128-4.459.861L382.7,586.48l4.865-.228Zm16.278-4.966-4.434,1.647,37.776,59.4,5.067-1.077Zm15.81-7.981-4.256,2.5,50.774,58.273,5.131-2.039Zm14.771-11.1-3.9,3.357,64.557,54.5,4.991-3.116Zm13.01-14.125-3.344,4.155,78.4,47.581,4.573-4.231Zm10.578-16.912-2.61,4.89,91.337,37.155,3.8-5.333Zm7.462-19.179-1.7,5.447,102.092,23.284,2.7-6.258Zm3.762-20.776-.633,5.8,109.351,6.549,1.267-6.9Zm-.253-21.447.481,5.891,112.036-12-.329-7.145Zm104.765-53.1-109.2,31.962,1.622,5.7L549.35,364.46Zm-16.456-36.889L429.789,369.7l2.673,5.232,101.965-48.088ZM506.849,289.11l-88.93,63,3.56,4.561,90.083-62.454Zm-29.694-24.652L403.2,337.477l4.269,3.686,75.248-72.9Zm-33-16.988-57.69,78.757,4.725,2.724L450.109,249.9ZM410.04,238.1l-41.488,80.518,4.966,1.723,42.539-81.114Zm-33.418-2.47L350.246,314.6l5.017.747L382.411,235.6Zm-31.4,3.433-12.985,74.881,4.865-.139,13.466-75.73Zm-28.554,8.234-1.6,69.054,4.586-.95,1.8-69.864ZM291.4,259.226l7.753,62.188,4.206-1.621L295.6,256.9Zm-18.217,11.921-3.6,2.749,15.227,54.8,3.762-2.192Zm-19,16.342-3,3.053,21,47.265,3.281-2.648Zm-15.7,17.748-2.445,3.243,25.349,39.854,2.774-3ZM225.871,323.9l-1.926,3.357,28.5,32.722,2.268-3.281ZM216.1,343.076l-1.444,3.408,30.682,25.906,1.773-3.471Zm-7.119,19.408-1,3.433,32.05,19.433,1.267-3.585Zm-4.662,19.42-.583,3.42,32.76,13.327.8-3.661Zm-2.394,19.281-.2,3.382,32.924,7.512.342-3.686Zm-.253,19.04.165,3.319,32.62,1.951-.114-3.661Zm1.786,18.66.519,3.256,31.873-3.408-.532-3.6Zm34.394,9.273-30.644,8.969.861,3.167,30.733-8.627Zm25.1,46.694-21.282,29.061,2.255,2.648,21.6-28.972Zm9.868,9.564-17.533,34.026,2.622,2.432,17.849-34.052Zm11.211,8.348-13.01,38.942,3,2.2,13.314-39.094Zm12.516,6.942-7.588,43.768,3.4,1.888,7.829-44.034Zm13.707,5.27-1.115,48.354,3.8,1.52,1.267-48.747ZM325,528.3l6.562,52.534,4.18,1.039-6.549-53.029Z" transform="translate(6.534 0)" fill="url(#linear-gradient)"/>
  </g>
</svg>
