<?xml version="1.0" encoding="UTF-8" standalone="no"?>
<!-- Generator: Adobe Illustrator 12.0.0, SVG Export Plug-In . SVG Version: 6.00 Build 51448)  -->
<svg
   xmlns:dc="http://purl.org/dc/elements/1.1/"
   xmlns:cc="http://web.resource.org/cc/"
   xmlns:rdf="http://www.w3.org/1999/02/22-rdf-syntax-ns#"
   xmlns:svg="http://www.w3.org/2000/svg"
   xmlns="http://www.w3.org/2000/svg"
   xmlns:sodipodi="http://sodipodi.sourceforge.net/DTD/sodipodi-0.dtd"
   xmlns:inkscape="http://www.inkscape.org/namespaces/inkscape"
   version="1.1"
   id="Layer_1"
   width="192.756"
   height="192.756"
   viewBox="0 0 192.756 192.756"
   overflow="visible"
   enable-background="new 0 0 192.756 192.756"
   xml:space="preserve"
   sodipodi:version="0.32"
   inkscape:version="0.44.1"
   sodipodi:docname="Eurotunnel.svg"
   sodipodi:docbase="C:\Documents and Settings\Sigurd\Mine dokumenter\Mine bilder"><metadata
   id="metadata3102"><rdf:RDF><cc:Work
       rdf:about=""><dc:format>image/svg+xml</dc:format><dc:type
         rdf:resource="http://purl.org/dc/dcmitype/StillImage" /></cc:Work></rdf:RDF></metadata><defs
   id="defs3100" /><sodipodi:namedview
   inkscape:window-height="584"
   inkscape:window-width="845"
   inkscape:pageshadow="2"
   inkscape:pageopacity="0.0"
   guidetolerance="10.0"
   gridtolerance="10.0"
   objecttolerance="10.0"
   borderopacity="1.0"
   bordercolor="#666666"
   pagecolor="#ffffff"
   id="base"
   inkscape:zoom="1.9558406"
   inkscape:cx="96.377998"
   inkscape:cy="96.377998"
   inkscape:window-x="22"
   inkscape:window-y="22"
   inkscape:current-layer="g3071" />
<g
   id="g3071">
	
	<path
   fill-rule="evenodd"
   clip-rule="evenodd"
   fill="#005798"
   d="M42.576,42.659c14.347-14.347,33.532-22.188,53.718-22.188   c20.353,0,39.372,7.841,53.718,22.188c13.013,13.18,20.688,30.196,22.021,48.38h12.179c-1.335-21.521-10.344-41.54-25.691-56.888   C141.839,17.468,119.817,8.293,96.294,8.293c-46.711,0-85.082,36.702-87.918,82.747h12.178   C21.89,72.855,29.563,55.839,42.576,42.659L42.576,42.659z"
   id="path3075" />
	<path
   fill-rule="evenodd"
   clip-rule="evenodd"
   fill="#EB513E"
   d="M96.294,172.284c-20.186,0-39.371-7.841-53.718-22.188   c-14.014-14.181-21.854-32.865-22.188-52.718H8.376c0.167,23.188,9.343,44.877,25.691,61.226   c16.683,16.683,38.704,25.858,62.227,25.858c23.523,0,45.544-9.176,62.227-25.858c16.35-16.349,25.524-38.037,25.858-61.226   h-12.179C171.701,138.752,137.835,172.284,96.294,172.284L96.294,172.284z"
   id="path3077" />
	<path
   fill-rule="evenodd"
   clip-rule="evenodd"
   fill="#040506"
   d="M49.082,90.372h17.684v-6.34c0,0-7.674-0.167-11.011-0.167   c0-2.335,0-7.007,0-7.007h11.178v-7.006c0,0-7.674,0-11.178,0c0-2.002,0-5.839,0-5.839h11.011v-6.339H49.082V90.372L49.082,90.372z   "
   id="path3079" />
	<path
   fill-rule="evenodd"
   clip-rule="evenodd"
   fill="#040506"
   d="M124.488,127.741l17.851,0.167v-6.506c0,0-7.674,0-11.011,0   c0-2.503,0-7.174,0-7.174h11.011v-7.007c0,0-7.674,0-11.011,0c0-2.002,0-5.839,0-5.839h11.011v-6.339h-17.851V127.741   L124.488,127.741z"
   id="path3081" />
	<path
   fill-rule="evenodd"
   clip-rule="evenodd"
   fill="#040506"
   d="M92.458,57.674v22.021c0,2.836-1.001,7.174-5.672,9.843   c-1.668,0.834-3.67,1.334-5.672,1.334c-1.835,0-3.837-0.5-5.338-1.167c-4.504-3.003-5.672-6.84-5.672-10.01V57.674h7.007v22.021   c0,2.168,0.5,5.505,4.504,5.338c3.837,0,4.337-3.17,4.337-5.338V57.674H92.458L92.458,57.674z"
   id="path3083" />
	<path
   fill-rule="evenodd"
   clip-rule="evenodd"
   fill="#040506"
   d="M70.77,95.21v22.021c0,2.836-1.001,7.174-5.672,9.676   c-1.668,1.001-3.67,1.335-5.672,1.335c-1.835,0-3.837-0.334-5.338-1.001c-4.671-3.003-5.672-6.84-5.672-10.01V95.21h7.006v22.021   c0,2.002,0.501,5.338,4.505,5.338c3.836,0,4.17-3.336,4.17-5.338l0.167-22.021H70.77L70.77,95.21z"
   id="path3085" />
	<path
   fill-rule="evenodd"
   clip-rule="evenodd"
   fill="#040506"
   d="M142.673,73.689c0,11.011-5.339,17.183-12.179,17.183   c-7.34,0-12.345-6.172-12.345-17.183c0-10.176,5.005-16.683,12.345-16.683C138.836,57.007,142.673,65.182,142.673,73.689   L142.673,73.689z M125.322,73.689c0,4.504,1.002,10.176,5.172,10.176c3.671,0,5.005-4.337,5.005-10.176   c0-4.838-1.334-9.843-5.172-9.676C126.49,64.013,125.322,69.185,125.322,73.689L125.322,73.689z"
   id="path3087" />
	<polygon
   fill-rule="evenodd"
   clip-rule="evenodd"
   fill="#040506"
   points="25.56,95.21 25.56,101.383 32.733,101.383    32.733,127.908 38.906,127.908 38.906,101.383 45.746,101.383 45.746,95.21 25.56,95.21  "
   id="polygon3089" />
	<polygon
   fill-rule="evenodd"
   clip-rule="evenodd"
   fill="#040506"
   points="152.015,121.902 152.015,95.543 145.676,95.543    145.676,121.902 145.676,121.902 145.676,128.242 162.358,128.242 162.358,121.902 152.015,121.902  "
   id="polygon3091" />
	<polygon
   fill-rule="evenodd"
   clip-rule="evenodd"
   fill="#040506"
   points="114.979,114.229 105.137,95.21 105.137,95.377    105.137,95.21 98.797,95.21 98.797,127.908 105.137,127.908 105.137,108.724 114.979,127.908 114.979,127.908 114.979,127.908    114.979,127.908 114.979,127.908 121.152,127.908 121.152,95.21 114.979,95.21 114.979,114.229  "
   id="polygon3093" />
	<polygon
   fill-rule="evenodd"
   clip-rule="evenodd"
   fill="#040506"
   points="89.789,114.229 79.945,95.21 79.945,95.377 79.945,95.21    73.606,95.21 73.606,127.908 79.945,127.908 79.945,108.724 89.789,127.908 89.789,127.908 89.789,127.908 89.789,127.908    89.789,127.908 96.128,127.908 96.128,95.21 89.789,95.21 89.789,114.229  "
   id="polygon3095" />
	<path
   fill-rule="evenodd"
   clip-rule="evenodd"
   fill="#040506"
   d="M102.134,90.205h-6.84V57.674c0,0,8.341-0.167,11.178,0   c3.336,0.167,6.506,1.334,8.007,3.837c3.837,5.339,2.002,13.013-4.337,15.849c1.835,3.837,7.34,12.845,7.34,12.845h-7.841   c0,0-4.671-8.007-7.507-11.845c0,1.335,0,2.336,0,3.837C102.134,84.533,102.134,90.205,102.134,90.205L102.134,90.205z    M106.805,72.188c1.335,0,2.336-1.835,2.336-4.004c0-2.169-1.001-4.004-2.336-4.004h-5.172v8.008H106.805L106.805,72.188z"
   id="path3097" />
</g>
</svg>