<svg xmlns="http://www.w3.org/2000/svg" xmlns:xlink="http://www.w3.org/1999/xlink" version="1.1" width="99.2126pt" height="62.3622pt" viewBox="0 0 99.2126 62.3622">
<defs>
<clipPath id="clip_0">
<path transform="matrix(1,0,0,-1,0,62.3622)" d="M0 62.362H99.213V0H0Z"/>
</clipPath>
</defs>
<g id="layer_1" data-name="Layer 1">
<g clip-path="url(#clip_0)">
<path transform="matrix(1,0,0,-1,82.7093,21.0848)" d="M0 0-4.016 5.637C-4.016 5.637-10.468 14.691-37.752 14.691H-49.163C-21.878 14.691-15.428 5.637-15.428 5.637L-11.412 0C-8.976-3.419-13.173-3.419-13.173-3.419H-1.763C-1.763-3.419 2.434-3.419 0 0" fill="#dd4529"/>
<path transform="matrix(1,0,0,-1,94.119,21.0848)" d="M0 0-4.015 5.637C-4.015 5.637-10.467 14.691-37.751 14.691H-49.162C-21.877 14.691-15.426 5.637-15.426 5.637L-11.41 0C-8.976-3.419-13.173-3.419-13.173-3.419H-1.762C-1.762-3.419 2.437-3.419 0 0" fill="#e86a25"/>
<path transform="matrix(1,0,0,-1,20.5203,15.448002)" d="M0 0-4.016 5.635C-6.451 9.054-2.253 9.054-2.253 9.054H-13.665C-13.665 9.054-17.863 9.054-15.427 5.635L-11.411 0C-11.411 0-4.96-9.055 20.225-9.055H31.636C6.451-9.055 0 0 0 0" fill="#f9a36b"/>
<path transform="matrix(1,0,0,-1,31.9318,15.448002)" d="M0 0-4.016 5.635C-6.452 9.054-2.254 9.054-2.254 9.054H-13.665C-13.665 9.054-17.863 9.054-15.427 5.635L-11.411 0C-11.411 0-4.96-9.055 20.225-9.055H31.637C6.451-9.055 0 0 0 0" fill="#e66a25"/>
<path transform="matrix(1,0,0,-1,71.2968,21.0848)" d="M0 0-4.015 5.637C-4.015 5.637-10.465 14.691-37.751 14.691H-41.619C-41.619 14.691-45.817 14.691-43.381 11.272L-39.364 5.637C-39.364 5.637-32.914-3.419-7.728-3.419H-1.761C-1.761-3.419 2.437-3.419 0 0" fill="#d83126"/>
<path transform="matrix(1,0,0,-1,14.1731,31.064602)" d="M0 0V-10.65H-1.35V-5.806H-7.215V-10.65H-8.564V0H-7.215V-4.605H-1.35V0Z" fill="#231f20"/>
<path transform="matrix(1,0,0,-1,0,62.3622)" d="M16.783 31.298H18.133002V20.648H16.783Z" fill="#231f20"/>
<path transform="matrix(1,0,0,-1,28.3382,37.425004)" d="M0 0H-2.295V1.02H1.14V-4.29H0ZM-3.24-4.365C-3.94-4.365-4.593-4.213-5.197-3.907-5.803-3.603-6.33-3.192-6.78-2.678-7.23-2.163-7.58-1.583-7.83-.937-8.08-.293-8.205 .375-8.205 1.065-8.205 1.785-8.08 2.468-7.83 3.112-7.58 3.758-7.232 4.33-6.787 4.83-6.343 5.33-5.817 5.723-5.213 6.008-4.607 6.292-3.95 6.435-3.24 6.435-2.21 6.435-1.36 6.22-.69 5.79-.021 5.36 .485 4.8 .825 4.11L-.21 3.39C-.521 4.01-.945 4.47-1.485 4.77-2.025 5.07-2.62 5.22-3.271 5.22-3.81 5.22-4.3 5.104-4.74 4.875-5.181 4.645-5.558 4.332-5.872 3.938-6.187 3.542-6.428 3.095-6.593 2.595-6.758 2.095-6.84 1.575-6.84 1.035-6.84 .465-6.748-.072-6.562-.577-6.378-1.083-6.115-1.527-5.775-1.912-5.436-2.298-5.04-2.601-4.59-2.82-4.14-3.04-3.655-3.15-3.135-3.15-2.525-3.15-1.945-2.995-1.396-2.685-.845-2.375-.325-1.9 .165-1.26V-2.655C-.795-3.795-1.93-4.365-3.24-4.365" fill="#231f20"/>
<path transform="matrix(1,0,0,-1,40.3489,31.064602)" d="M0 0V-10.65H-1.35V-5.806H-7.215V-10.65H-8.564V0H-7.215V-4.605H-1.35V0Z" fill="#231f20"/>
<path transform="matrix(1,0,0,-1,55.389,33.300004)" d="M0 0C-.12 .14-.28 .274-.48 .405-.681 .535-.905 .652-1.155 .758-1.405 .862-1.678 .947-1.973 1.013-2.268 1.077-2.575 1.11-2.896 1.11-3.716 1.11-4.32 .955-4.71 .646-5.101 .337-5.295-.087-5.295-.625-5.295-1.003-5.195-1.303-4.995-1.521-4.795-1.741-4.488-1.921-4.073-2.061-3.658-2.2-3.13-2.345-2.49-2.494-1.75-2.653-1.11-2.848-.57-3.077-.03-3.307 .385-3.613 .675-3.997 .965-4.381 1.109-4.892 1.109-5.529 1.109-6.038 1.013-6.479 .817-6.853 .622-7.227 .35-7.536 0-7.78-.351-8.024-.761-8.204-1.23-8.318-1.7-8.433-2.21-8.49-2.761-8.49-3.3-8.49-3.828-8.433-4.343-8.317-4.858-8.203-5.346-8.035-5.806-7.815-6.266-7.595-6.695-7.32-7.096-6.99L-6.45-5.85C-6.29-6.021-6.083-6.187-5.828-6.353-5.573-6.518-5.283-6.67-4.958-6.81-4.633-6.95-4.28-7.062-3.9-7.147-3.521-7.232-3.13-7.275-2.73-7.275-1.971-7.275-1.38-7.139-.96-6.864-.54-6.591-.33-6.19-.33-5.663-.33-5.264-.448-4.945-.683-4.706-.918-4.467-1.266-4.267-1.726-4.107-2.186-3.948-2.745-3.788-3.405-3.629-4.125-3.449-4.73-3.252-5.221-3.038-5.71-2.823-6.078-2.542-6.323-2.192-6.568-1.844-6.69-1.39-6.69-.831-6.69-.153-6.525 .42-6.195 .889-5.865 1.357-5.41 1.711-4.83 1.951-4.25 2.19-3.596 2.31-2.865 2.31-2.386 2.31-1.937 2.26-1.522 2.16-1.108 2.06-.721 1.92-.36 1.74 0 1.56 .33 1.345 .63 1.095Z" fill="#231f20"/>
<path transform="matrix(1,0,0,-1,59.6409,36.6896)" d="M0 0H3.105C3.475 0 3.797 .1 4.072 .3 4.348 .5 4.563 .77 4.718 1.109 4.872 1.449 4.95 1.819 4.95 2.22 4.95 2.64 4.86 3.017 4.68 3.353 4.5 3.688 4.265 3.949 3.975 4.14 3.685 4.329 3.365 4.425 3.015 4.425H0ZM-1.35-5.025V5.625H3.09C3.56 5.625 3.99 5.527 4.38 5.332 4.77 5.137 5.109 4.877 5.4 4.552 5.689 4.227 5.915 3.862 6.075 3.457 6.234 3.052 6.315 2.64 6.315 2.22 6.315 1.64 6.185 1.087 5.925 .562 5.665 .037 5.3-.388 4.83-.713 4.359-1.038 3.81-1.2 3.18-1.2H0V-5.025Z" fill="#231f20"/>
<path transform="matrix(1,0,0,-1,74.8509,40.5148)" d="M0 0V-1.2H-7.229V9.45H-.135V8.25H-5.88V4.8H-.885V3.675H-5.88V0Z" fill="#231f20"/>
<path transform="matrix(1,0,0,-1,83.6663,40.5148)" d="M0 0V-1.2H-7.229V9.45H-.135V8.25H-5.88V4.8H-.885V3.675H-5.88V0Z" fill="#231f20"/>
<path transform="matrix(1,0,0,-1,92.723,36.375204)" d="M0 0C0 .8-.147 1.51-.442 2.13-.737 2.75-1.165 3.235-1.726 3.585-2.285 3.936-2.97 4.11-3.78 4.11H-6.12V-4.14H-3.78C-2.96-4.14-2.271-3.957-1.71-3.593-1.15-3.228-.726-2.732-.436-2.107-.146-1.482 0-.78 0 0M-7.47-5.34V5.311H-3.78C-2.64 5.311-1.687 5.072-.923 4.598-.157 4.123 .415 3.482 .795 2.678 1.175 1.873 1.365 .98 1.365 0 1.365-1.08 1.155-2.02 .735-2.82 .314-3.62-.28-4.24-1.05-4.68-1.82-5.12-2.73-5.34-3.78-5.34Z" fill="#231f20"/>
<path transform="matrix(1,0,0,-1,6.9583,50.6896)" d="M0 0H3.225C3.595 0 3.917 .102 4.192 .307 4.468 .512 4.683 .784 4.838 1.125 4.992 1.465 5.07 1.83 5.07 2.22 5.07 2.619 4.98 2.987 4.8 3.322 4.62 3.657 4.385 3.925 4.095 4.125 3.805 4.324 3.485 4.425 3.135 4.425H0ZM-1.35-5.025V5.625H3.21C3.68 5.625 4.11 5.527 4.5 5.332 4.89 5.137 5.229 4.877 5.52 4.552 5.81 4.227 6.035 3.862 6.195 3.457 6.354 3.052 6.435 2.64 6.435 2.22 6.435 1.729 6.343 1.265 6.157 .824 5.973 .385 5.713 .01 5.378-.301 5.042-.61 4.65-.825 4.2-.945L6.78-5.025H5.25L2.82-1.2H0V-5.025Z" fill="#231f20"/>
<path transform="matrix(1,0,0,-1,21.4847,51.5451)" d="M0 0-1.884 4.92-3.775 0ZM-2.454 6.48H-1.313L3.036-4.17H1.597L.401-1.05H-4.18L-5.379-4.17H-6.818Z" fill="#231f20"/>
<path transform="matrix(1,0,0,-1,0,62.3622)" d="M25.944 17.298H27.294V6.6480009H25.944Z" fill="#231f20"/>
<path transform="matrix(1,0,0,-1,29.9046,55.715)" d="M0 0V10.65H1.35V1.2H7.29V0Z" fill="#231f20"/>
<path transform="matrix(1,0,0,-1,51.7552,51.425004)" d="M0 0H-2.295V1.02H1.14V-4.29H0ZM-3.24-4.365C-3.94-4.365-4.593-4.213-5.197-3.907-5.803-3.603-6.33-3.192-6.78-2.678-7.23-2.163-7.58-1.583-7.83-.937-8.08-.293-8.205 .375-8.205 1.065-8.205 1.785-8.08 2.468-7.83 3.112-7.58 3.758-7.232 4.33-6.787 4.83-6.343 5.33-5.817 5.723-5.213 6.008-4.607 6.292-3.95 6.435-3.24 6.435-2.21 6.435-1.36 6.22-.69 5.79-.021 5.36 .485 4.8 .825 4.11L-.21 3.39C-.521 4.01-.945 4.47-1.485 4.77-2.025 5.07-2.62 5.22-3.271 5.22-3.81 5.22-4.3 5.104-4.74 4.875-5.181 4.645-5.558 4.332-5.872 3.938-6.187 3.542-6.428 3.095-6.593 2.595-6.758 2.095-6.84 1.575-6.84 1.035-6.84 .465-6.748-.072-6.562-.577-6.378-1.083-6.115-1.527-5.775-1.912-5.436-2.298-5.04-2.601-4.59-2.82-4.14-3.04-3.655-3.15-3.135-3.15-2.525-3.15-1.945-2.995-1.396-2.685-.845-2.375-.325-1.9 .165-1.26V-2.655C-.795-3.795-1.93-4.365-3.24-4.365" fill="#231f20"/>
<path transform="matrix(1,0,0,-1,56.5511,50.6896)" d="M0 0H3.225C3.595 0 3.917 .102 4.192 .307 4.468 .512 4.683 .784 4.838 1.125 4.992 1.465 5.07 1.83 5.07 2.22 5.07 2.619 4.98 2.987 4.8 3.322 4.62 3.657 4.385 3.925 4.095 4.125 3.805 4.324 3.485 4.425 3.135 4.425H0ZM-1.35-5.025V5.625H3.21C3.68 5.625 4.11 5.527 4.5 5.332 4.89 5.137 5.229 4.877 5.52 4.552 5.81 4.227 6.035 3.862 6.195 3.457 6.354 3.052 6.435 2.64 6.435 2.22 6.435 1.729 6.343 1.265 6.157 .824 5.973 .385 5.713 .01 5.378-.301 5.042-.61 4.65-.825 4.2-.945L6.78-5.025H5.25L2.82-1.2H0V-5.025Z" fill="#231f20"/>
<path transform="matrix(1,0,0,-1,65.7933,50.3898)" d="M0 0C0-.54 .087-1.062 .263-1.567 .437-2.073 .685-2.521 1.005-2.91 1.325-3.3 1.71-3.61 2.16-3.84 2.609-4.07 3.109-4.186 3.66-4.186 4.229-4.186 4.74-4.065 5.189-3.825 5.64-3.585 6.022-3.266 6.337-2.865 6.652-2.466 6.893-2.016 7.058-1.516 7.223-1.016 7.305-.51 7.305 0 7.305 .54 7.217 1.06 7.042 1.56 6.867 2.06 6.617 2.507 6.292 2.902 5.967 3.297 5.582 3.607 5.138 3.832 4.692 4.058 4.2 4.17 3.66 4.17 3.09 4.17 2.58 4.052 2.13 3.817 1.68 3.582 1.297 3.265 .982 2.865 .667 2.465 .425 2.018 .255 1.522 .085 1.027 0 .52 0 0M3.645-5.4C2.895-5.4 2.215-5.25 1.604-4.95 .995-4.65 .467-4.243 .022-3.728-.423-3.213-.766-2.633-1.005-1.987-1.245-1.343-1.365-.681-1.365 0-1.365 .71-1.237 1.388-.982 2.032-.728 2.678-.373 3.252 .082 3.757 .537 4.262 1.069 4.662 1.68 4.957 2.29 5.252 2.955 5.399 3.675 5.399 4.425 5.399 5.104 5.245 5.715 4.935 6.324 4.625 6.85 4.21 7.29 3.689 7.729 3.17 8.069 2.59 8.31 1.95 8.55 1.31 8.67 .654 8.67-.016 8.67-.726 8.545-1.402 8.295-2.048 8.045-2.692 7.692-3.268 7.237-3.772 6.782-4.277 6.25-4.675 5.64-4.965 5.029-5.255 4.365-5.4 3.645-5.4" fill="#231f20"/>
<path transform="matrix(1,0,0,-1,80.8382,55.790205)" d="M0 0C-.85 0-1.565 .147-2.145 .442-2.725 .737-3.19 1.138-3.54 1.643-3.89 2.147-4.146 2.72-4.305 3.36-4.465 4-4.545 4.66-4.545 5.34V10.726H-3.195V5.34C-3.195 4.82-3.143 4.312-3.037 3.817-2.933 3.322-2.76 2.88-2.52 2.49-2.28 2.101-1.955 1.79-1.545 1.561-1.135 1.33-.625 1.215-.015 1.215 .605 1.215 1.12 1.333 1.53 1.567 1.94 1.803 2.265 2.117 2.505 2.513 2.745 2.907 2.918 3.351 3.022 3.84 3.128 4.33 3.18 4.83 3.18 5.34V10.726H4.53V5.34C4.53 4.62 4.447 3.938 4.282 3.293 4.117 2.647 3.855 2.08 3.495 1.59 3.135 1.101 2.668 .713 2.093 .428 1.518 .143 .82 0 0 0" fill="#231f20"/>
<path transform="matrix(1,0,0,-1,89.2239,50.6896)" d="M0 0H3.105C3.475 0 3.797 .1 4.072 .3 4.348 .5 4.562 .77 4.718 1.109 4.872 1.449 4.95 1.819 4.95 2.22 4.95 2.64 4.86 3.017 4.68 3.353 4.5 3.688 4.265 3.949 3.975 4.14 3.685 4.329 3.365 4.425 3.015 4.425H0ZM-1.35-5.025V5.625H3.09C3.56 5.625 3.99 5.527 4.38 5.332 4.77 5.137 5.109 4.877 5.4 4.552 5.689 4.227 5.915 3.862 6.075 3.457 6.234 3.052 6.315 2.64 6.315 2.22 6.315 1.64 6.185 1.087 5.925 .562 5.665 .037 5.3-.388 4.83-.713 4.359-1.038 3.81-1.2 3.18-1.2H0V-5.025Z" fill="#231f20"/>
</g>
</g>
</svg>
