<svg id="SvgjsSvg1001" width="288" height="288" xmlns="http://www.w3.org/2000/svg" version="1.1" xmlns:xlink="http://www.w3.org/1999/xlink" xmlns:svgjs="http://svgjs.com/svgjs"><defs id="SvgjsDefs1002"></defs><g id="SvgjsG1008"><svg xmlns="http://www.w3.org/2000/svg" id="Layer_1" x="0" y="0" enable-background="new 0 0 841.89 396.85" version="1.1" viewBox="0 0 841.89 396.85" xml:space="preserve" width="288" height="288"><path fill="#ffffff" d="M149.52 221.72c-10.45 29.21-43.38 31.16-50.46 31.16-5.49 0-26.38-.88-40.55-15.05-12.04-12.04-12.39-27.44-12.39-43.03v-69.76h31.52v77.91c0 11.15.88 15.41 5.84 19.3 6.2 4.78 14.52 4.78 16.64 4.78 5.84 0 10.98-.71 15.4-4.6 5.84-5.14 6.02-12.57 6.02-19.65v-77.73h31.34v69.76C152.89 204.01 152.53 213.04 149.52 221.72zM557.1 250.22l-27.6-44.8h-19.48v44.62h-31.52v-125h56.31c3.54 0 7.08 0 10.62.18 5.67.35 25.5 1.59 35.23 19.48 1.77 3.36 4.96 10.62 4.96 20.89 0 13.99-5.49 21.43-9.74 25.5-1.77 1.77-3.9 3.36-5.84 4.6-2.3 1.24-4.96 2.48-10.09 4.43l31.5 50.11H557.1zM536.41 148.24h-26.56v34h25.85c1.24 0 4.78 0 8.32-1.24 10.09-3.37 10.45-12.93 10.45-16.11C554.46 148.59 541.89 148.24 536.41 148.24zM62.52 286.73c-.17.91-.8 2.85-2.93 4.21-.83.51-2.31 1.22-4.67 1.22-1.05 0-2.25-.14-3.27-.54-1.82-.68-3.3-2.19-3.9-4.07-.29-.97-.29-1.68-.29-3.56v-12.44h2.68v12.07c0 .77-.03 1.57.09 2.33.06.46.28 1.79 1.31 2.76.48.46 1.05.77 1.68.97.71.2 1.51.2 1.74.2.48 0 1.76 0 2.99-.8 1.99-1.28 2.05-3.44 2.05-5.52v-12.01h2.71v12.84C62.69 284.6 62.71 285.79 62.52 286.73zM80.51 291.66l-7.06-9.91-2.85 2.9v7h-2.68v-20.1h2.68v9.82l9.54-9.82h3.3l-8.14 8.31 8.48 11.79H80.51zM111.32 291.66l-5.49-8.54h-5.18v8.54h-2.62v-20.1h7.49c.63 0 1.28-.03 1.91 0 2.79.11 4.1 1 4.95 2.02.54.65 1.22 1.85 1.22 3.84 0 .83-.11 3.56-2.68 4.87-.48.26-.97.46-2.05.65l5.64 8.71H111.32zM109.36 274.35c-1.05-.63-2.31-.57-3.5-.57h-5.21v7.09H106c1.51 0 3.3.03 4.33-1.37.46-.63.63-1.31.63-2.08C110.95 276.85 110.9 275.29 109.36 274.35zM132.17 291.66l-2.19-6.15h-7.66l-2.25 6.15h-2.85l7.66-20.1h2.79l7.32 20.1H132.17zM126.25 274.86l-3.07 8.4h6.01L126.25 274.86zM139.38 291.66v-20.1h2.7v20.1H139.38zM148.06 291.66v-20.1h2.68v17.71h9.74v2.39H148.06zM188.47 291.66l-5.49-8.54h-5.18v8.54h-2.62v-20.1h7.49c.63 0 1.28-.03 1.91 0 2.79.11 4.1 1 4.95 2.02.54.65 1.22 1.85 1.22 3.84 0 .83-.11 3.56-2.68 4.87-.48.26-.97.46-2.05.65l5.64 8.71H188.47zM186.51 274.35c-1.05-.63-2.31-.57-3.5-.57h-5.21v7.09h5.35c1.51 0 3.3.03 4.33-1.37.46-.63.63-1.31.63-2.08C188.1 276.85 188.04 275.29 186.51 274.35zM196.33 291.66v-20.1h13.84v2.36H198.9v6.21h9.79v2.33h-9.79v6.86h11.62v2.33H196.33zM229.34 290.01c-1.11 1.08-2.93 2.16-6.35 2.16-.66 0-3.39-.03-5.49-1.39-.63-.4-1.2-.94-1.62-1.51-1.2-1.59-1.34-3.42-1.4-4.04l2.88-.37c.03.6.09 2.28 1.37 3.62.71.74 2.05 1.59 4.41 1.59.28 0 1.05 0 1.85-.23.85-.23 3.16-1.03 3.16-3.79 0-1.34-.57-1.91-1.02-2.28-.8-.63-1.85-.85-2.79-1.05l-1.74-.37c-1.45-.31-3.07-.65-4.41-1.39-2.42-1.31-2.73-3.13-2.73-4.33 0-1.59.71-2.93 1.91-3.93 2.05-1.71 4.56-1.65 5.38-1.65 1.94 0 3.81.31 5.38 1.51.94.71 1.4 1.39 1.62 1.79.54.91.77 1.85.94 2.88l-2.7.17c-.03-.4-.08-.8-.2-1.2-.4-1.42-1.68-3.08-4.98-3.08-1.28 0-3.02.28-3.9 1.34-.43.48-.68 1.17-.68 1.82 0 .28.06.91.48 1.48.77 1.05 2.33 1.37 3.5 1.65l2.22.54c.51.11 1.05.26 1.57.4.63.14 3.07.68 4.3 2.73.28.48.74 1.37.74 2.79C231.01 286.68 230.9 288.47 229.34 290.01zM236.8 291.66v-20.1h13.84v2.36h-11.27v6.21h9.79v2.33h-9.79v6.86h11.62v2.33H236.8zM269.12 291.66l-2.19-6.15h-7.66l-2.25 6.15h-2.85l7.66-20.1h2.79l7.32 20.1H269.12zM263.2 274.86l-3.07 8.4h6.01L263.2 274.86zM289.94 291.66l-5.49-8.54h-5.18v8.54h-2.62v-20.1h7.49c.63 0 1.28-.03 1.91 0 2.79.11 4.1 1 4.95 2.02.54.65 1.22 1.85 1.22 3.84 0 .83-.11 3.56-2.68 4.87-.48.26-.97.46-2.05.65l5.64 8.71H289.94zM287.97 274.35c-1.05-.63-2.31-.57-3.5-.57h-5.21v7.09h5.35c1.51 0 3.3.03 4.33-1.37.46-.63.63-1.31.63-2.08C289.57 276.85 289.51 275.29 287.97 274.35zM316.19 285.96c-.51 1.31-2.25 4.58-6.21 5.75-1.42.43-2.68.46-3.22.46-3.56 0-5.58-1.42-6.66-2.42-1.34-1.25-3.16-3.76-3.16-8.14 0-6.26 3.79-10.56 10.16-10.56 1.14 0 4.93.09 7.4 2.99.82.97 1.34 1.99 1.76 3.16l-2.7.54c-.34-.97-.65-1.51-.91-1.88-.71-1-2.42-2.68-5.58-2.68-.48 0-1.71.06-2.93.57-4.21 1.79-4.24 6.6-4.24 7.72 0 4.84 2.31 7.12 4.27 7.94.51.2 1.48.51 2.93.51.34 0 1.14 0 2.05-.26.8-.23 2.68-1 3.79-3.07.31-.6.57-1.25.82-2.56l2.9.34C316.62 284.65 316.47 285.25 316.19 285.96zM335.27 291.66v-9.2h-10.93v9.2h-2.65v-20.1h2.65v8.54h10.93v-8.54h2.7v20.1H335.27zM367.42 291.66l-2.19-6.15h-7.66l-2.25 6.15h-2.85l7.66-20.1h2.79l7.32 20.1H367.42zM361.5 274.86l-3.07 8.4h6.01L361.5 274.86zM388.24 291.66l-11.02-16.34.26 16.34h-2.53v-20.1h2.53l10.88 16.11-.11-16.11h2.42v20.1H388.24zM412.41 285.08c-.34 1.42-1.51 5.04-5.78 6.21-.88.26-1.59.34-3.36.34-.65 0-1.31.03-1.94.03h-5.1v-20.1h7.97c1.02 0 3.25.06 5.41 1.88 1.54 1.31 3.13 3.67 3.13 8.2C412.76 282.75 412.67 284 412.41 285.08zM408.46 276c-.31-.37-.63-.68-1-.94-.74-.54-1.37-.74-1.71-.83-.94-.28-1.71-.31-3.59-.31h-3.16v15.4h4.75c.74 0 2.99-.09 4.53-1.88.91-1.02 1.74-2.79 1.74-5.84C410.02 279.76 409.68 277.51 408.46 276zM47.2 325.83v-20.1h2.7v20.1H47.2zM69.47 325.83l-11.02-16.34.26 16.34h-2.53v-20.1h2.53l10.88 16.11-.11-16.11h2.42v20.1H69.47zM91.76 325.83l-11.02-16.34L81 325.83h-2.53v-20.1H81l10.87 16.11-.11-16.11h2.42v20.1H91.76zM117.13 322.61c-1.11 1.48-3.53 3.73-8.09 3.73-1.22 0-4.33-.14-6.92-2.56-1.34-1.25-3.13-3.67-3.13-8.03 0-1.14.06-4.61 2.5-7.37 1.91-2.14 4.84-3.16 7.63-3.16 1.37 0 2.73.23 3.99.71 4.19 1.62 6.12 5.41 6.12 9.68C119.24 316.66 119.15 319.88 117.13 322.61zM114.77 310.03c-1.85-2.53-4.56-2.65-5.64-2.65-3.27.03-4.93 1.65-5.69 2.76-1.11 1.59-1.54 3.79-1.54 5.64 0 2.65.8 4.44 1.34 5.32.48.74 1.05 1.31 1.28 1.51.82.71 1.57 1.03 1.94 1.17.54.2 1.37.46 2.73.46.51 0 1.76-.03 3.05-.6 1.94-.88 4.13-3.22 4.1-8.03C116.33 314.9 116.33 312.17 114.77 310.03zM131.57 325.83h-2.65l-6.8-20.1h2.85l5.32 16.8 5.52-16.8h2.85L131.57 325.83zM155.12 325.83l-2.19-6.15h-7.66l-2.25 6.15h-2.85l7.66-20.1h2.79l7.32 20.1H155.12zM149.2 309.03l-3.07 8.4h6.01L149.2 309.03zM167.42 308.07v17.77h-2.68v-17.77h-6.04v-2.33h14.72v2.33H167.42zM177.88 325.83v-20.1h2.7v20.1H177.88zM204.21 322.61c-1.11 1.48-3.53 3.73-8.09 3.73-1.22 0-4.33-.14-6.92-2.56-1.34-1.25-3.13-3.67-3.13-8.03 0-1.14.06-4.61 2.5-7.37 1.91-2.14 4.84-3.16 7.63-3.16 1.37 0 2.73.23 3.99.71 4.19 1.62 6.12 5.41 6.12 9.68C206.32 316.66 206.23 319.88 204.21 322.61zM201.85 310.03c-1.85-2.53-4.56-2.65-5.64-2.65-3.27.03-4.93 1.65-5.69 2.76-1.11 1.59-1.54 3.79-1.54 5.64 0 2.65.8 4.44 1.34 5.32.48.74 1.05 1.31 1.28 1.51.82.71 1.57 1.03 1.94 1.17.54.2 1.37.46 2.73.46.51 0 1.76-.03 3.05-.6 1.94-.88 4.13-3.22 4.1-8.03C203.42 314.9 203.42 312.17 201.85 310.03zM225.4 325.83l-11.02-16.34.26 16.34h-2.53v-20.1h2.53l10.88 16.11-.11-16.11h2.42v20.1H225.4zM257.55 325.83l-11.02-16.34.26 16.34h-2.53v-20.1h2.53l10.87 16.11-.11-16.11h2.42v20.1H257.55zM266.59 325.83v-20.1h13.84v2.36h-11.27v6.21h9.79v2.33h-9.79v6.86h11.62v2.33H266.59zM292.7 308.07v17.77h-2.68v-17.77h-6.04v-2.33h14.72v2.33H292.7zM323.65 325.83h-2.62l-5.3-16.65-5.12 16.65h-2.68l-6.18-20.1h2.82l4.75 16.65 5.1-16.65h2.62l5.3 16.65 4.7-16.65h2.76L323.65 325.83zM350.04 322.61c-1.11 1.48-3.53 3.73-8.08 3.73-1.22 0-4.33-.14-6.92-2.56-1.34-1.25-3.13-3.67-3.13-8.03 0-1.14.06-4.61 2.5-7.37 1.91-2.14 4.84-3.16 7.63-3.16 1.37 0 2.73.23 3.99.71 4.19 1.62 6.12 5.41 6.12 9.68C352.15 316.66 352.06 319.88 350.04 322.61zM347.68 310.03c-1.85-2.53-4.56-2.65-5.64-2.65-3.27.03-4.93 1.65-5.69 2.76-1.11 1.59-1.54 3.79-1.54 5.64 0 2.65.8 4.44 1.34 5.32.48.74 1.05 1.31 1.28 1.51.82.71 1.57 1.03 1.94 1.17.54.2 1.37.46 2.73.46.51 0 1.76-.03 3.05-.6 1.94-.88 4.13-3.22 4.1-8.03C349.24 314.9 349.24 312.17 347.68 310.03zM369.23 325.83l-5.49-8.54h-5.18v8.54h-2.62v-20.1h7.49c.63 0 1.28-.03 1.91 0 2.79.11 4.1 1 4.95 2.02.54.65 1.22 1.85 1.22 3.84 0 .83-.11 3.56-2.68 4.87-.48.26-.97.46-2.05.65l5.64 8.71H369.23zM367.27 308.52c-1.05-.63-2.31-.57-3.5-.57h-5.21v7.09h5.35c1.51 0 3.3.03 4.33-1.37.46-.63.63-1.31.63-2.08C368.86 311.03 368.8 309.46 367.27 308.52zM389.34 325.83l-7.06-9.91-2.85 2.9v7h-2.68v-20.1h2.68v9.82l9.54-9.82h3.3l-8.14 8.31 8.48 11.79H389.34z" class="color00638e svgShape"></path><g fill="#414b56" class="color000 svgShape"><linearGradient id="SVGID_1_" x1="314.964" x2="228.964" y1="80.761" y2="178.761" gradientUnits="userSpaceOnUse"><stop offset="0" stop-color="#414b56" class="stopColorfff svgShape"></stop><stop offset="1" stop-color="#ffffff" class="stopColor00638e svgShape"></stop></linearGradient><path fill="url(#SVGID_1_)" d="M189.81,208.73c-0.02,0-0.04,0-0.06,0v29.39c0.02,0,0.04,0,0.06,0V208.73z"></path><linearGradient id="SVGID_00000167366600352603198840000017457613170612304567_" x1="293.799" x2="207.799" y1="62.188" y2="160.188" gradientUnits="userSpaceOnUse"><stop offset="0" stop-color="#414b56" class="stopColorfff svgShape"></stop><stop offset="1" stop-color="#ffffff" class="stopColor00638e svgShape"></stop></linearGradient><path fill="url(#SVGID_00000167366600352603198840000017457613170612304567_)" d="M219.55,176.04v-50.99h-29.75v81.13				c4.82,0.02,9.17,2.03,12.3,5.24L340.38,64.75h-15.33L219.55,176.04z"></path><linearGradient id="SVGID_00000043447498733820078640000014112480359913406111_" x1="356.245" x2="270.245" y1="116.988" y2="214.988" gradientUnits="userSpaceOnUse"><stop offset="0" stop-color="#414b56" class="stopColorfff svgShape"></stop><stop offset="1" stop-color="#ffffff" class="stopColor00638e svgShape"></stop></linearGradient><path fill="url(#SVGID_00000043447498733820078640000014112480359913406111_)" d="M362.77,64.75h-19.13L203.75,213.39
				c2.03,2.83,3.24,6.29,3.24,10.03c0,9.49-7.7,17.21-17.18,17.24v9.39h29.75V213.4l19.3-20.01l33.29,56.66h35.24l-47.63-78.62
				L362.77,64.75z"></path><linearGradient id="SVGID_00000098212445645069989760000013885360449315179181_" x1="316.842" x2="230.842" y1="82.41" y2="180.41" gradientUnits="userSpaceOnUse"><stop offset="0" stop-color="#414b56" class="stopColorfff svgShape"></stop><stop offset="1" stop-color="#ffffff" class="stopColor00638e svgShape"></stop></linearGradient><path fill="url(#SVGID_00000098212445645069989760000013885360449315179181_)" d="M204.44,223.42
			c0-8.08-6.56-14.66-14.63-14.69v29.38C197.88,238.07,204.44,231.5,204.44,223.42z"></path></g><g fill="#414b56" class="color000 svgShape"><path fill="none" d="M394.49,182.23c1.39,0,4.73-0.06,8.09-1.24c10.09-3.37,10.45-12.93,10.45-16.11
			c0-16.29-12.57-16.64-18.06-16.64h-26.56v34h23.13l82.96,141.09h2.96L394.49,182.23z"></path><linearGradient id="SVGID_00000006687413744238596470000006362358179214492093_" x1="454.324" x2="378.991" y1="309.786" y2="181.786" gradientUnits="userSpaceOnUse"><stop offset="0" stop-color="#414b56" class="stopColorfff svgShape"></stop><stop offset="1" stop-color="#ffffff" class="stopColor00638e svgShape"></stop></linearGradient><path fill="url(#SVGID_00000006687413744238596470000006362358179214492093_)" d="M368.41,182.23v-34h26.56
			c5.49,0,18.06,0.35,18.06,16.64c0,3.19-0.35,12.75-10.45,16.11c-3.36,1.18-6.69,1.23-8.09,1.24l82.97,141.09h15.66l-74.6-123.21
			c5.14-1.95,7.79-3.19,10.09-4.43c1.95-1.24,4.07-2.83,5.84-4.6c4.25-4.07,9.74-11.51,9.74-25.5c0-10.27-3.19-17.53-4.96-20.89
			c-9.74-17.88-29.57-19.12-35.23-19.48c-3.54-0.18-7.08-0.18-10.62-0.18h-56.31v125h31.52v-44.62h19.48l70.7,117.9h15.73
			l-82.96-141.09H368.41z"></path></g>
    <g fill="#414b56" class="color000 svgShape">
        <linearGradient id="SVGID_00000111151541156480004620000008308927226822842547_" x1="633.054" x2="633.054" y1="80.853" y2="229.52" gradientUnits="userSpaceOnUse">
            <stop offset="0" stop-color="#414b56" class="stopColorfff svgShape"></stop>
            <stop offset="1" stop-color="#ffffff" class="stopColor00638e svgShape"></stop></linearGradient><rect width="13.96" height="179.37" x="626.07" y="70.85" fill="url(#SVGID_00000111151541156480004620000008308927226822842547_)"></rect><linearGradient id="SVGID_00000056407436437755080520000010056343974030076337_" x1="649.911" x2="649.911" y1="80.853" y2="229.52" gradientUnits="userSpaceOnUse"><stop offset="0" stop-color="#414b56" class="stopColorfff svgShape"></stop><stop offset="1" stop-color="#ffffff" class="stopColor00638e svgShape"></stop></linearGradient><rect width="14.65" height="179.37" x="642.58" y="70.85" fill="url(#SVGID_00000056407436437755080520000010056343974030076337_)"></rect></g><g fill="#414b56" class="color000 svgShape"><linearGradient id="SVGID_00000023962574035116192410000002413315226838334850_" x1="784.835" x2="784.835" y1="319.119" y2="231.117" gradientUnits="userSpaceOnUse"><stop offset="0" stop-color="#414b56" class="stopColorfff svgShape"></stop><stop offset="1" stop-color="#ffffff" class="stopColor00638e svgShape"></stop></linearGradient><path fill="url(#SVGID_00000023962574035116192410000002413315226838334850_)" d="M784.85,90.7
			c7.66,0,13.98-5.75,14.92-13.15v-1.7H769.9v1.56C770.78,84.88,777.14,90.7,784.85,90.7z"></path><linearGradient id="SVGID_00000181069925399340148020000014568154882623350662_" x1="701.127" x2="701.127" y1="308.187" y2="220.184" gradientUnits="userSpaceOnUse"><stop offset="0" stop-color="#414b56" class="stopColorfff svgShape"></stop><stop offset="1" stop-color="#ffffff" class="stopColor00638e svgShape"></stop></linearGradient><rect width="12.71" height="196.58" x="694.77" y="125.04" fill="url(#SVGID_00000181069925399340148020000014568154882623350662_)"></rect><linearGradient id="SVGID_00000021834325157765404650000006162916483871617200_" x1="746.859" x2="746.859" y1="308.78" y2="224.666" gradientUnits="userSpaceOnUse"><stop offset="0" stop-color="#414b56" class="stopColorfff svgShape"></stop><stop offset="1" stop-color="#ffffff" class="stopColor00638e svgShape"></stop></linearGradient><path fill="url(#SVGID_00000021834325157765404650000006162916483871617200_)" d="M769.93,85.11l1.16,118.37
					l-45.68-78.44h-15.37v196.58h14.84l-1.06-148.95l45.33,77.37h14.55V93.27C777.91,92.9,772.88,89.73,769.93,85.11z"></path><linearGradient id="SVGID_00000127041588183168625700000011913183582311522192_" x1="793.004" x2="793.004" y1="304.573" y2="222.04" gradientUnits="userSpaceOnUse"><stop offset="0" stop-color="#414b56" class="stopColorfff svgShape"></stop><stop offset="1" stop-color="#ffffff" class="stopColor00638e svgShape"></stop></linearGradient><path fill="url(#SVGID_00000127041588183168625700000011913183582311522192_)" d="M786.24,93.25v156.79h13.53V85.08
				C796.87,89.65,791.93,92.81,786.24,93.25z"></path></g></svg></g></svg>