<?xml version="1.0" encoding="UTF-8"?> <svg xmlns="http://www.w3.org/2000/svg" id="Layer_1" data-name="Layer 1" viewBox="0 0 1555.11 295.62"><defs><style>.cls-1{fill:#80c342;}</style></defs><title>CGA_Navigators_Single_Line_RGB</title><path class="cls-1" d="M423.64,147v39.78h96.08a101.42,101.42,0,1,1-14-96.2L539.59,67a142.5,142.5,0,1,0,27.69,84.38c0-1.48-.07-2.95-.11-4.42Z"></path><path class="cls-1" d="M145,50.09a101.06,101.06,0,0,1,80.87,40.38l34-23.43a142.54,142.54,0,1,0-2.77,172.38l-31.9-26A101.33,101.33,0,1,1,145,50.09Z"></path><path class="cls-1" d="M784.8,179.87l-.24-.88-.09.12L706.23,5.17l-132.6,285h43.6L638.72,243a139.21,139.21,0,0,0,131.06.56l20.28,46.69h44.3Zm-80,39.45a98.46,98.46,0,0,1-49.33-13.17L705.64,95.83l48,110.56A98.46,98.46,0,0,1,704.79,219.32Z"></path><path class="cls-1" d="M951,128V65.88l42.39,44.35V69.83h8.78v61.68l-42.4-44.25V128Z"></path><path class="cls-1" d="M1058.42,113.85h-24.89L1027.06,128h-9.46l28.77-61.79L1074.12,128h-9.6Zm-3.58-8.25-8.62-19.77-9,19.77Z"></path><path class="cls-1" d="M1087.48,69.83l16.08,40.29,16.3-40.29h9.6l-26.09,62.51-25.49-62.51Z"></path><path class="cls-1" d="M1153.18,69.83V128h-8.78V69.83Z"></path><path class="cls-1" d="M1204.75,97.69h24v1.93a39.63,39.63,0,0,1-1.54,11.59,24.62,24.62,0,0,1-5.09,8.74,26.33,26.33,0,0,1-20.59,9.11,28.34,28.34,0,0,1-20.9-8.81,30.36,30.36,0,0,1,.15-42.7,30.57,30.57,0,0,1,34.27-6.06,37,37,0,0,1,11.11,9l-6.25,6Q1212.78,77,1202.49,77A20.81,20.81,0,0,0,1187,83.35,21.24,21.24,0,0,0,1180.77,99a20.64,20.64,0,0,0,7,16q6.51,5.83,14.12,5.83a17.55,17.55,0,0,0,11.64-4.37,15.59,15.59,0,0,0,5.76-10.54h-14.5Z"></path><path class="cls-1" d="M1279,113.85h-24.88L1247.67,128h-9.45L1267,66.18,1294.73,128h-9.6Zm-3.57-8.25-8.63-19.77-9,19.77Z"></path><path class="cls-1" d="M1322.51,78.08V128h-8.77V78.08h-13.37V69.83h35.47v8.25Z"></path><path class="cls-1" d="M1346.64,98.64a28.48,28.48,0,0,1,9-21.09,29.62,29.62,0,0,1,21.53-8.81A30.41,30.41,0,0,1,1407.41,99a28.6,28.6,0,0,1-9,21.27,30.74,30.74,0,0,1-42,1Q1346.65,112.61,1346.64,98.64Zm8.85.11A21,21,0,0,0,1362,114.6a21.46,21.46,0,0,0,30.31-.11,22.57,22.57,0,0,0,.08-31.18,21.69,21.69,0,0,0-30.61,0A21,21,0,0,0,1355.49,98.75Z"></path><path class="cls-1" d="M1445.85,103.19l18,24.78h-10.73l-16.6-23.8h-1.58V128h-8.77V69.83h10.27q11.52,0,16.65,4.33a15.94,15.94,0,0,1,5.64,12.73,16.53,16.53,0,0,1-3.54,10.62A15.79,15.79,0,0,1,1445.85,103.19Zm-10.92-6.66h2.78q12.46,0,12.47-9.53,0-8.93-12.13-8.92h-3.12Z"></path><path class="cls-1" d="M1513.16,78.49,1506,82.71c-1.33-2.31-2.59-3.82-3.8-4.52a8.87,8.87,0,0,0-4.85-1.2,9,9,0,0,0-6.07,2.07,6.43,6.43,0,0,0-2.41,5.12q0,4.26,6.33,6.85l5.8,2.37q7.08,2.86,10.35,7a15.75,15.75,0,0,1,3.28,10.11,17.78,17.78,0,0,1-5.35,13.25A18.36,18.36,0,0,1,1496,129a17.88,17.88,0,0,1-12.5-4.48q-4.85-4.49-6.06-12.61l8.89-2c.4,3.42,1.1,5.77,2.11,7.08a10,10,0,0,0,14.72,1,9.52,9.52,0,0,0,2.71-7,9.94,9.94,0,0,0-.47-3.11,8.06,8.06,0,0,0-1.47-2.59,11.72,11.72,0,0,0-2.58-2.23,24.77,24.77,0,0,0-3.77-2l-5.61-2.34Q1480,93.82,1480,84.1a14,14,0,0,1,5-10.95,18,18,0,0,1,12.46-4.45Q1507.51,68.7,1513.16,78.49Z"></path><path class="cls-1" d="M923.59,209.64a31.06,31.06,0,0,1,2.9-12.3,26.92,26.92,0,0,1,8.28-10.81q5.38-4.14,10.46-4.14a9.48,9.48,0,0,1,7.59,3.56q3,3.54,3,9.62a30.55,30.55,0,0,1-3.31,13.93,26.65,26.65,0,0,1-8.31,10.1,17.12,17.12,0,0,1-9.81,3.5,10.71,10.71,0,0,1-7.54-3Q923.59,217.08,923.59,209.64Zm5.54,5.41a6.62,6.62,0,0,0,1.45,4.33,4.81,4.81,0,0,0,4,1.79q6.95,0,11.42-11.95T950.46,191a7.41,7.41,0,0,0-1.37-4.87,5.08,5.08,0,0,0-4.12-1.63q-6.48,0-11.15,11.09T929.13,215.05Z"></path><path class="cls-1" d="M996,183.47l-.67,2.08h-9.06l-8,27.53q-5.49,18.69-12,25.08t-14.34,6.4a16.63,16.63,0,0,1-7.84-1.83q-3.5-1.84-3.5-4.57a3.3,3.3,0,0,1,1.09-2.54,3.64,3.64,0,0,1,2.54-1,3.56,3.56,0,0,1,2.74,1.11,3.43,3.43,0,0,1,1,2.38,7.89,7.89,0,0,1-.15,1.17l-.1.8c0,.6.41,1.15,1.24,1.65a5.71,5.71,0,0,0,3,.75q6.21,0,10.46-6t9.63-24.14L980,185.55h-10.2l.68-2.08h10.24l.83-2.73q7-23.43,22.63-23.43c3,0,5.24.59,6.81,1.79s2.35,2.36,2.35,3.52c0,1.67-.86,2.5-2.59,2.5-1.38,0-2.84-1.08-4.4-3.25a4.78,4.78,0,0,0-4-2.35,9.88,9.88,0,0,0-6.73,2.94q-3.21,2.94-7.1,16l-1.5,5Z"></path><path class="cls-1" d="M1063.81,180.28H1040.5v14h22.63v8.25H1040.5v19.43h23.31v8.24h-32.08V172h32.08Z"></path><path class="cls-1" d="M1095.2,199.79l-16-27.75h10l11.1,19.69L1112,172H1122l-16.76,27.75,17.59,30.38H1113l-12.88-22.25-13.25,22.25h-9.94Z"></path><path class="cls-1" d="M1147.15,206.56v23.61h-8.77V172h9.94a45.24,45.24,0,0,1,11,1,14.79,14.79,0,0,1,6.63,3.85,16.52,16.52,0,0,1,5,12.35q0,8-5.35,12.64t-14.42,4.67Zm0-8.13h3.28q12.09,0,12.08-9.3,0-9-12.46-9h-2.9Z"></path><path class="cls-1" d="M1219.81,180.28h-23.3v14h22.63v8.25h-22.63v19.43h23.3v8.24h-32.07V172h32.07Z"></path><path class="cls-1" d="M1258.74,205.4l18,24.77H1266l-16.61-23.79h-1.58v23.79h-8.77V172h10.28q11.52,0,16.64,4.33a15.91,15.91,0,0,1,5.65,12.72,16.57,16.57,0,0,1-3.54,10.62A15.82,15.82,0,0,1,1258.74,205.4Zm-10.92-6.67h2.78q12.47,0,12.47-9.52,0-8.93-12.13-8.93h-3.12Z"></path><path class="cls-1" d="M1302,172v58.13h-8.78V172Z"></path><path class="cls-1" d="M1355.71,180.28h-23.3v14H1355v8.25h-22.63v19.43h23.3v8.24h-32.08V172h32.08Z"></path><path class="cls-1" d="M1375,230.17V168.09l42.39,44.35V172h8.78v61.67l-42.4-44.24v40.7Z"></path><path class="cls-1" d="M1491.25,175.16v10.4q-7.61-6.37-15.74-6.37a20,20,0,0,0-15.1,6.44,21.69,21.69,0,0,0-6.17,15.66,21.17,21.17,0,0,0,6.17,15.44,20.41,20.41,0,0,0,15.14,6.29,18.51,18.51,0,0,0,7.87-1.51,22.81,22.81,0,0,0,3.74-2,41.88,41.88,0,0,0,4.09-3.09V227a31.66,31.66,0,0,1-15.82,4.26,29.17,29.17,0,0,1-21.27-8.7,28.83,28.83,0,0,1-8.77-21.16,29.85,29.85,0,0,1,7.34-19.81q9-10.65,23.38-10.65A29.75,29.75,0,0,1,1491.25,175.16Z"></path><path class="cls-1" d="M1542.11,180.28H1518.8v14h22.63v8.25H1518.8v19.43h23.31v8.24H1510V172h32.08Z"></path></svg>