<?xml version="1.0" encoding="utf-8"?>
<!-- Generator: Adobe Illustrator 26.0.2, SVG Export Plug-In . SVG Version: 6.00 Build 0)  -->
<svg version="1.1" id="Layer_1" xmlns="http://www.w3.org/2000/svg" xmlns:xlink="http://www.w3.org/1999/xlink" x="0px" y="0px"
	 viewBox="0 0 841.89 396.85" style="enable-background:new 0 0 841.89 396.85;" xml:space="preserve">
<style type="text/css">
	.st0{fill:#00638E;}
	.st1{fill:url(#SVGID_1_);}
	.st2{fill:url(#SVGID_00000103983193166115287560000017641478774534168752_);}
	.st3{fill:url(#SVGID_00000009573621332560704710000014608320422437338802_);}
	.st4{fill:url(#SVGID_00000083083695536784686360000005207853267337919661_);}
	.st5{fill:none;}
	.st6{fill:url(#SVGID_00000011719718936961775870000008784799763701650312_);}
	.st7{fill:url(#SVGID_00000005256552538784875720000008834056627430342799_);}
	.st8{fill:url(#SVGID_00000108281624973434952570000002673769112714799511_);}
	.st9{fill:url(#SVGID_00000134960511160622356230000012624406889857052336_);}
	.st10{fill:url(#SVGID_00000072248607273594700080000012009529418067849358_);}
	.st11{fill:url(#SVGID_00000175323164001750778150000013940829727400919943_);}
	.st12{fill:url(#SVGID_00000045617363886929595320000010700435506026116525_);}
</style>
<g>
	<path class="st0" d="M149.52,221.72c-10.45,29.21-43.38,31.16-50.46,31.16c-5.49,0-26.38-0.88-40.55-15.05
		c-12.04-12.04-12.39-27.44-12.39-43.03v-69.76h31.52v77.91c0,11.15,0.88,15.41,5.84,19.3c6.2,4.78,14.52,4.78,16.64,4.78
		c5.84,0,10.98-0.71,15.4-4.6c5.84-5.14,6.02-12.57,6.02-19.65v-77.73h31.34v69.76C152.89,204.01,152.53,213.04,149.52,221.72z"/>
	<path class="st0" d="M557.1,250.22l-27.6-44.8h-19.48v44.62h-31.52v-125h56.31c3.54,0,7.08,0,10.62,0.18
		c5.67,0.35,25.5,1.59,35.23,19.48c1.77,3.36,4.96,10.62,4.96,20.89c0,13.99-5.49,21.43-9.74,25.5c-1.77,1.77-3.9,3.36-5.84,4.6
		c-2.3,1.24-4.96,2.48-10.09,4.43l31.5,50.11H557.1z M536.41,148.24h-26.56v34h25.85c1.24,0,4.78,0,8.32-1.24
		c10.09-3.37,10.45-12.93,10.45-16.11C554.46,148.59,541.89,148.24,536.41,148.24z"/>
	<g>
		<path class="st0" d="M62.52,286.73c-0.17,0.91-0.8,2.85-2.93,4.21c-0.83,0.51-2.31,1.22-4.67,1.22c-1.05,0-2.25-0.14-3.27-0.54
			c-1.82-0.68-3.3-2.19-3.9-4.07c-0.29-0.97-0.29-1.68-0.29-3.56v-12.44h2.68v12.07c0,0.77-0.03,1.57,0.09,2.33
			c0.06,0.46,0.28,1.79,1.31,2.76c0.48,0.46,1.05,0.77,1.68,0.97c0.71,0.2,1.51,0.2,1.74,0.2c0.48,0,1.76,0,2.99-0.8
			c1.99-1.28,2.05-3.44,2.05-5.52v-12.01h2.71v12.84C62.69,284.6,62.71,285.79,62.52,286.73z"/>
		<path class="st0" d="M80.51,291.66l-7.06-9.91l-2.85,2.9v7h-2.68v-20.1h2.68v9.82l9.54-9.82h3.3l-8.14,8.31l8.48,11.79H80.51z"/>
		<path class="st0" d="M111.32,291.66l-5.49-8.54h-5.18v8.54h-2.62v-20.1h7.49c0.63,0,1.28-0.03,1.91,0c2.79,0.11,4.1,1,4.95,2.02
			c0.54,0.65,1.22,1.85,1.22,3.84c0,0.83-0.11,3.56-2.68,4.87c-0.48,0.26-0.97,0.46-2.05,0.65l5.64,8.71H111.32z M109.36,274.35
			c-1.05-0.63-2.31-0.57-3.5-0.57h-5.21v7.09H106c1.51,0,3.3,0.03,4.33-1.37c0.46-0.63,0.63-1.31,0.63-2.08
			C110.95,276.85,110.9,275.29,109.36,274.35z"/>
		<path class="st0" d="M132.17,291.66l-2.19-6.15h-7.66l-2.25,6.15h-2.85l7.66-20.1h2.79l7.32,20.1H132.17z M126.25,274.86
			l-3.07,8.4h6.01L126.25,274.86z"/>
		<path class="st0" d="M139.38,291.66v-20.1h2.7v20.1H139.38z"/>
		<path class="st0" d="M148.06,291.66v-20.1h2.68v17.71h9.74v2.39H148.06z"/>
		<path class="st0" d="M188.47,291.66l-5.49-8.54h-5.18v8.54h-2.62v-20.1h7.49c0.63,0,1.28-0.03,1.91,0c2.79,0.11,4.1,1,4.95,2.02
			c0.54,0.65,1.22,1.85,1.22,3.84c0,0.83-0.11,3.56-2.68,4.87c-0.48,0.26-0.97,0.46-2.05,0.65l5.64,8.71H188.47z M186.51,274.35
			c-1.05-0.63-2.31-0.57-3.5-0.57h-5.21v7.09h5.35c1.51,0,3.3,0.03,4.33-1.37c0.46-0.63,0.63-1.31,0.63-2.08
			C188.1,276.85,188.04,275.29,186.51,274.35z"/>
		<path class="st0" d="M196.33,291.66v-20.1h13.84v2.36H198.9v6.21h9.79v2.33h-9.79v6.86h11.62v2.33H196.33z"/>
		<path class="st0" d="M229.34,290.01c-1.11,1.08-2.93,2.16-6.35,2.16c-0.66,0-3.39-0.03-5.49-1.39c-0.63-0.4-1.2-0.94-1.62-1.51
			c-1.2-1.59-1.34-3.42-1.4-4.04l2.88-0.37c0.03,0.6,0.09,2.28,1.37,3.62c0.71,0.74,2.05,1.59,4.41,1.59c0.28,0,1.05,0,1.85-0.23
			c0.85-0.23,3.16-1.03,3.16-3.79c0-1.34-0.57-1.91-1.02-2.28c-0.8-0.63-1.85-0.85-2.79-1.05l-1.74-0.37
			c-1.45-0.31-3.07-0.65-4.41-1.39c-2.42-1.31-2.73-3.13-2.73-4.33c0-1.59,0.71-2.93,1.91-3.93c2.05-1.71,4.56-1.65,5.38-1.65
			c1.94,0,3.81,0.31,5.38,1.51c0.94,0.71,1.4,1.39,1.62,1.79c0.54,0.91,0.77,1.85,0.94,2.88l-2.7,0.17c-0.03-0.4-0.08-0.8-0.2-1.2
			c-0.4-1.42-1.68-3.08-4.98-3.08c-1.28,0-3.02,0.28-3.9,1.34c-0.43,0.48-0.68,1.17-0.68,1.82c0,0.28,0.06,0.91,0.48,1.48
			c0.77,1.05,2.33,1.37,3.5,1.65l2.22,0.54c0.51,0.11,1.05,0.26,1.57,0.4c0.63,0.14,3.07,0.68,4.3,2.73
			c0.28,0.48,0.74,1.37,0.74,2.79C231.01,286.68,230.9,288.47,229.34,290.01z"/>
		<path class="st0" d="M236.8,291.66v-20.1h13.84v2.36h-11.27v6.21h9.79v2.33h-9.79v6.86h11.62v2.33H236.8z"/>
		<path class="st0" d="M269.12,291.66l-2.19-6.15h-7.66l-2.25,6.15h-2.85l7.66-20.1h2.79l7.32,20.1H269.12z M263.2,274.86l-3.07,8.4
			h6.01L263.2,274.86z"/>
		<path class="st0" d="M289.94,291.66l-5.49-8.54h-5.18v8.54h-2.62v-20.1h7.49c0.63,0,1.28-0.03,1.91,0c2.79,0.11,4.1,1,4.95,2.02
			c0.54,0.65,1.22,1.85,1.22,3.84c0,0.83-0.11,3.56-2.68,4.87c-0.48,0.26-0.97,0.46-2.05,0.65l5.64,8.71H289.94z M287.97,274.35
			c-1.05-0.63-2.31-0.57-3.5-0.57h-5.21v7.09h5.35c1.51,0,3.3,0.03,4.33-1.37c0.46-0.63,0.63-1.31,0.63-2.08
			C289.57,276.85,289.51,275.29,287.97,274.35z"/>
		<path class="st0" d="M316.19,285.96c-0.51,1.31-2.25,4.58-6.21,5.75c-1.42,0.43-2.68,0.46-3.22,0.46c-3.56,0-5.58-1.42-6.66-2.42
			c-1.34-1.25-3.16-3.76-3.16-8.14c0-6.26,3.79-10.56,10.16-10.56c1.14,0,4.93,0.09,7.4,2.99c0.82,0.97,1.34,1.99,1.76,3.16
			l-2.7,0.54c-0.34-0.97-0.65-1.51-0.91-1.88c-0.71-1-2.42-2.68-5.58-2.68c-0.48,0-1.71,0.06-2.93,0.57
			c-4.21,1.79-4.24,6.6-4.24,7.72c0,4.84,2.31,7.12,4.27,7.94c0.51,0.2,1.48,0.51,2.93,0.51c0.34,0,1.14,0,2.05-0.26
			c0.8-0.23,2.68-1,3.79-3.07c0.31-0.6,0.57-1.25,0.82-2.56l2.9,0.34C316.62,284.65,316.47,285.25,316.19,285.96z"/>
		<path class="st0" d="M335.27,291.66v-9.2h-10.93v9.2h-2.65v-20.1h2.65v8.54h10.93v-8.54h2.7v20.1H335.27z"/>
		<path class="st0" d="M367.42,291.66l-2.19-6.15h-7.66l-2.25,6.15h-2.85l7.66-20.1h2.79l7.32,20.1H367.42z M361.5,274.86l-3.07,8.4
			h6.01L361.5,274.86z"/>
		<path class="st0" d="M388.24,291.66l-11.02-16.34l0.26,16.34h-2.53v-20.1h2.53l10.88,16.11l-0.11-16.11h2.42v20.1H388.24z"/>
		<path class="st0" d="M412.41,285.08c-0.34,1.42-1.51,5.04-5.78,6.21c-0.88,0.26-1.59,0.34-3.36,0.34c-0.65,0-1.31,0.03-1.94,0.03
			h-5.1v-20.1h7.97c1.02,0,3.25,0.06,5.41,1.88c1.54,1.31,3.13,3.67,3.13,8.2C412.76,282.75,412.67,284,412.41,285.08z M408.46,276
			c-0.31-0.37-0.63-0.68-1-0.94c-0.74-0.54-1.37-0.74-1.71-0.83c-0.94-0.28-1.71-0.31-3.59-0.31h-3.16v15.4h4.75
			c0.74,0,2.99-0.09,4.53-1.88c0.91-1.02,1.74-2.79,1.74-5.84C410.02,279.76,409.68,277.51,408.46,276z"/>
		<path class="st0" d="M47.2,325.83v-20.1h2.7v20.1H47.2z"/>
		<path class="st0" d="M69.47,325.83l-11.02-16.34l0.26,16.34h-2.53v-20.1h2.53l10.88,16.11l-0.11-16.11h2.42v20.1H69.47z"/>
		<path class="st0" d="M91.76,325.83l-11.02-16.34L81,325.83h-2.53v-20.1H81l10.87,16.11l-0.11-16.11h2.42v20.1H91.76z"/>
		<path class="st0" d="M117.13,322.61c-1.11,1.48-3.53,3.73-8.09,3.73c-1.22,0-4.33-0.14-6.92-2.56c-1.34-1.25-3.13-3.67-3.13-8.03
			c0-1.14,0.06-4.61,2.5-7.37c1.91-2.14,4.84-3.16,7.63-3.16c1.37,0,2.73,0.23,3.99,0.71c4.19,1.62,6.12,5.41,6.12,9.68
			C119.24,316.66,119.15,319.88,117.13,322.61z M114.77,310.03c-1.85-2.53-4.56-2.65-5.64-2.65c-3.27,0.03-4.93,1.65-5.69,2.76
			c-1.11,1.59-1.54,3.79-1.54,5.64c0,2.65,0.8,4.44,1.34,5.32c0.48,0.74,1.05,1.31,1.28,1.51c0.82,0.71,1.57,1.03,1.94,1.17
			c0.54,0.2,1.37,0.46,2.73,0.46c0.51,0,1.76-0.03,3.05-0.6c1.94-0.88,4.13-3.22,4.1-8.03C116.33,314.9,116.33,312.17,114.77,310.03
			z"/>
		<path class="st0" d="M131.57,325.83h-2.65l-6.8-20.1h2.85l5.32,16.8l5.52-16.8h2.85L131.57,325.83z"/>
		<path class="st0" d="M155.12,325.83l-2.19-6.15h-7.66l-2.25,6.15h-2.85l7.66-20.1h2.79l7.32,20.1H155.12z M149.2,309.03l-3.07,8.4
			h6.01L149.2,309.03z"/>
		<path class="st0" d="M167.42,308.07v17.77h-2.68v-17.77h-6.04v-2.33h14.72v2.33H167.42z"/>
		<path class="st0" d="M177.88,325.83v-20.1h2.7v20.1H177.88z"/>
		<path class="st0" d="M204.21,322.61c-1.11,1.48-3.53,3.73-8.09,3.73c-1.22,0-4.33-0.14-6.92-2.56c-1.34-1.25-3.13-3.67-3.13-8.03
			c0-1.14,0.06-4.61,2.5-7.37c1.91-2.14,4.84-3.16,7.63-3.16c1.37,0,2.73,0.23,3.99,0.71c4.19,1.62,6.12,5.41,6.12,9.68
			C206.32,316.66,206.23,319.88,204.21,322.61z M201.85,310.03c-1.85-2.53-4.56-2.65-5.64-2.65c-3.27,0.03-4.93,1.65-5.69,2.76
			c-1.11,1.59-1.54,3.79-1.54,5.64c0,2.65,0.8,4.44,1.34,5.32c0.48,0.74,1.05,1.31,1.28,1.51c0.82,0.71,1.57,1.03,1.94,1.17
			c0.54,0.2,1.37,0.46,2.73,0.46c0.51,0,1.76-0.03,3.05-0.6c1.94-0.88,4.13-3.22,4.1-8.03C203.42,314.9,203.42,312.17,201.85,310.03
			z"/>
		<path class="st0" d="M225.4,325.83l-11.02-16.34l0.26,16.34h-2.53v-20.1h2.53l10.88,16.11l-0.11-16.11h2.42v20.1H225.4z"/>
		<path class="st0" d="M257.55,325.83l-11.02-16.34l0.26,16.34h-2.53v-20.1h2.53l10.87,16.11l-0.11-16.11h2.42v20.1H257.55z"/>
		<path class="st0" d="M266.59,325.83v-20.1h13.84v2.36h-11.27v6.21h9.79v2.33h-9.79v6.86h11.62v2.33H266.59z"/>
		<path class="st0" d="M292.7,308.07v17.77h-2.68v-17.77h-6.04v-2.33h14.72v2.33H292.7z"/>
		<path class="st0" d="M323.65,325.83h-2.62l-5.3-16.65l-5.12,16.65h-2.68l-6.18-20.1h2.82l4.75,16.65l5.1-16.65h2.62l5.3,16.65
			l4.7-16.65h2.76L323.65,325.83z"/>
		<path class="st0" d="M350.04,322.61c-1.11,1.48-3.53,3.73-8.08,3.73c-1.22,0-4.33-0.14-6.92-2.56c-1.34-1.25-3.13-3.67-3.13-8.03
			c0-1.14,0.06-4.61,2.5-7.37c1.91-2.14,4.84-3.16,7.63-3.16c1.37,0,2.73,0.23,3.99,0.71c4.19,1.62,6.12,5.41,6.12,9.68
			C352.15,316.66,352.06,319.88,350.04,322.61z M347.68,310.03c-1.85-2.53-4.56-2.65-5.64-2.65c-3.27,0.03-4.93,1.65-5.69,2.76
			c-1.11,1.59-1.54,3.79-1.54,5.64c0,2.65,0.8,4.44,1.34,5.32c0.48,0.74,1.05,1.31,1.28,1.51c0.82,0.71,1.57,1.03,1.94,1.17
			c0.54,0.2,1.37,0.46,2.73,0.46c0.51,0,1.76-0.03,3.05-0.6c1.94-0.88,4.13-3.22,4.1-8.03C349.24,314.9,349.24,312.17,347.68,310.03
			z"/>
		<path class="st0" d="M369.23,325.83l-5.49-8.54h-5.18v8.54h-2.62v-20.1h7.49c0.63,0,1.28-0.03,1.91,0c2.79,0.11,4.1,1,4.95,2.02
			c0.54,0.65,1.22,1.85,1.22,3.84c0,0.83-0.11,3.56-2.68,4.87c-0.48,0.26-0.97,0.46-2.05,0.65l5.64,8.71H369.23z M367.27,308.52
			c-1.05-0.63-2.31-0.57-3.5-0.57h-5.21v7.09h5.35c1.51,0,3.3,0.03,4.33-1.37c0.46-0.63,0.63-1.31,0.63-2.08
			C368.86,311.03,368.8,309.46,367.27,308.52z"/>
		<path class="st0" d="M389.34,325.83l-7.06-9.91l-2.85,2.9v7h-2.68v-20.1h2.68v9.82l9.54-9.82h3.3l-8.14,8.31l8.48,11.79H389.34z"
			/>
	</g>
	<g>
		<linearGradient id="SVGID_1_" gradientUnits="userSpaceOnUse" x1="314.9639" y1="80.7614" x2="228.9639" y2="178.7614">
			<stop  offset="0" style="stop-color:#FFFFFF"/>
			<stop  offset="1" style="stop-color:#00638E"/>
		</linearGradient>
		<path class="st1" d="M189.81,208.73c-0.02,0-0.04,0-0.06,0v29.39c0.02,0,0.04,0,0.06,0V208.73z"/>
		<g>
			
				<linearGradient id="SVGID_00000167366600352603198840000017457613170612304567_" gradientUnits="userSpaceOnUse" x1="293.799" y1="62.1882" x2="207.799" y2="160.1882">
				<stop  offset="0" style="stop-color:#FFFFFF"/>
				<stop  offset="1" style="stop-color:#00638E"/>
			</linearGradient>
			<path style="fill:url(#SVGID_00000167366600352603198840000017457613170612304567_);" d="M219.55,176.04v-50.99h-29.75v81.13
				c4.82,0.02,9.17,2.03,12.3,5.24L340.38,64.75h-15.33L219.55,176.04z"/>
			
				<linearGradient id="SVGID_00000043447498733820078640000014112480359913406111_" gradientUnits="userSpaceOnUse" x1="356.2452" y1="116.9879" x2="270.2452" y2="214.9879">
				<stop  offset="0" style="stop-color:#FFFFFF"/>
				<stop  offset="1" style="stop-color:#00638E"/>
			</linearGradient>
			<path style="fill:url(#SVGID_00000043447498733820078640000014112480359913406111_);" d="M362.77,64.75h-19.13L203.75,213.39
				c2.03,2.83,3.24,6.29,3.24,10.03c0,9.49-7.7,17.21-17.18,17.24v9.39h29.75V213.4l19.3-20.01l33.29,56.66h35.24l-47.63-78.62
				L362.77,64.75z"/>
		</g>
		
			<linearGradient id="SVGID_00000098212445645069989760000013885360449315179181_" gradientUnits="userSpaceOnUse" x1="316.8421" y1="82.4096" x2="230.8421" y2="180.4096">
			<stop  offset="0" style="stop-color:#FFFFFF"/>
			<stop  offset="1" style="stop-color:#00638E"/>
		</linearGradient>
		<path style="fill:url(#SVGID_00000098212445645069989760000013885360449315179181_);" d="M204.44,223.42
			c0-8.08-6.56-14.66-14.63-14.69v29.38C197.88,238.07,204.44,231.5,204.44,223.42z"/>
	</g>
	<g>
		<path class="st5" d="M394.49,182.23c1.39,0,4.73-0.06,8.09-1.24c10.09-3.37,10.45-12.93,10.45-16.11
			c0-16.29-12.57-16.64-18.06-16.64h-26.56v34h23.13l82.96,141.09h2.96L394.49,182.23z"/>
		
			<linearGradient id="SVGID_00000006687413744238596470000006362358179214492093_" gradientUnits="userSpaceOnUse" x1="454.3242" y1="309.7865" x2="378.9909" y2="181.7865">
			<stop  offset="0" style="stop-color:#FFFFFF"/>
			<stop  offset="1" style="stop-color:#00638E"/>
		</linearGradient>
		<path style="fill:url(#SVGID_00000006687413744238596470000006362358179214492093_);" d="M368.41,182.23v-34h26.56
			c5.49,0,18.06,0.35,18.06,16.64c0,3.19-0.35,12.75-10.45,16.11c-3.36,1.18-6.69,1.23-8.09,1.24l82.97,141.09h15.66l-74.6-123.21
			c5.14-1.95,7.79-3.19,10.09-4.43c1.95-1.24,4.07-2.83,5.84-4.6c4.25-4.07,9.74-11.51,9.74-25.5c0-10.27-3.19-17.53-4.96-20.89
			c-9.74-17.88-29.57-19.12-35.23-19.48c-3.54-0.18-7.08-0.18-10.62-0.18h-56.31v125h31.52v-44.62h19.48l70.7,117.9h15.73
			l-82.96-141.09H368.41z"/>
	</g>
	<g>
		
			<linearGradient id="SVGID_00000111151541156480004620000008308927226822842547_" gradientUnits="userSpaceOnUse" x1="633.0544" y1="80.8533" x2="633.0544" y2="229.52">
			<stop  offset="0" style="stop-color:#FFFFFF"/>
			<stop  offset="1" style="stop-color:#00638E"/>
		</linearGradient>
		
			<rect x="626.07" y="70.85" style="fill:url(#SVGID_00000111151541156480004620000008308927226822842547_);" width="13.96" height="179.37"/>
		
			<linearGradient id="SVGID_00000056407436437755080520000010056343974030076337_" gradientUnits="userSpaceOnUse" x1="649.9107" y1="80.8533" x2="649.9107" y2="229.52">
			<stop  offset="0" style="stop-color:#FFFFFF"/>
			<stop  offset="1" style="stop-color:#00638E"/>
		</linearGradient>
		
			<rect x="642.58" y="70.85" style="fill:url(#SVGID_00000056407436437755080520000010056343974030076337_);" width="14.65" height="179.37"/>
	</g>
	<g>
		
			<linearGradient id="SVGID_00000023962574035116192410000002413315226838334850_" gradientUnits="userSpaceOnUse" x1="784.835" y1="319.1194" x2="784.835" y2="231.1169">
			<stop  offset="0" style="stop-color:#FFFFFF"/>
			<stop  offset="1" style="stop-color:#00638E"/>
		</linearGradient>
		<path style="fill:url(#SVGID_00000023962574035116192410000002413315226838334850_);" d="M784.85,90.7
			c7.66,0,13.98-5.75,14.92-13.15v-1.7H769.9v1.56C770.78,84.88,777.14,90.7,784.85,90.7z"/>
		<g>
			<g>
				
					<linearGradient id="SVGID_00000181069925399340148020000014568154882623350662_" gradientUnits="userSpaceOnUse" x1="701.127" y1="308.1866" x2="701.127" y2="220.1841">
					<stop  offset="0" style="stop-color:#FFFFFF"/>
					<stop  offset="1" style="stop-color:#00638E"/>
				</linearGradient>
				
					<rect x="694.77" y="125.04" style="fill:url(#SVGID_00000181069925399340148020000014568154882623350662_);" width="12.71" height="196.58"/>
				
					<linearGradient id="SVGID_00000021834325157765404650000006162916483871617200_" gradientUnits="userSpaceOnUse" x1="746.8593" y1="308.7804" x2="746.8593" y2="224.666">
					<stop  offset="0" style="stop-color:#FFFFFF"/>
					<stop  offset="1" style="stop-color:#00638E"/>
				</linearGradient>
				<path style="fill:url(#SVGID_00000021834325157765404650000006162916483871617200_);" d="M769.93,85.11l1.16,118.37
					l-45.68-78.44h-15.37v196.58h14.84l-1.06-148.95l45.33,77.37h14.55V93.27C777.91,92.9,772.88,89.73,769.93,85.11z"/>
			</g>
			
				<linearGradient id="SVGID_00000127041588183168625700000011913183582311522192_" gradientUnits="userSpaceOnUse" x1="793.004" y1="304.5731" x2="793.004" y2="222.0402">
				<stop  offset="0" style="stop-color:#FFFFFF"/>
				<stop  offset="1" style="stop-color:#00638E"/>
			</linearGradient>
			<path style="fill:url(#SVGID_00000127041588183168625700000011913183582311522192_);" d="M786.24,93.25v156.79h13.53V85.08
				C796.87,89.65,791.93,92.81,786.24,93.25z"/>
		</g>
	</g>
</g>
</svg>
